<?xml version="1.0" standalone="no"?>
 <!DOCTYPE svg PUBLIC "-//W3C//DTD SVG 1.1//EN" 
 "http://www.w3.org/Graphics/SVG/1.1/DTD/svg11.dtd"> 
<svg
  xmlns:svg="http://www.w3.org/2000/svg"
  xmlns="http://www.w3.org/2000/svg"
  xmlns:xlink="http://www.w3.org/1999/xlink"
  xmlns:inkscape="http://www.inkscape.org/namespaces/inkscape"
  version="1.1"
  width="64.9986mm" height="29.9974mm" viewBox="0.0000 0.0000 64.9986 29.9974">
<title>SVG Image created as board.svg date 2026-06-17T21:18:18 </title>
  <desc>Image generated by PCBNEW </desc>
<g style="fill:#000000; fill-opacity:1.0000;stroke:#000000; stroke-opacity:1.0000;
stroke-linecap:round; stroke-linejoin:round;"
 transform="translate(0 0) scale(1 1)">
</g>
<g style="fill:none; 
stroke:#000000; stroke-width:0.1000; stroke-opacity:1; 
stroke-linecap:round; stroke-linejoin:round;">
<path d="M0.0000 3.0000
L0.0000 27.0000
" />
<path d="M3.0000 0.0000 A3.0000 3.0000 0.0 0 0 0.0000 3.0000" />
<path d="M0.0000 27.0000 A3.0000 3.0000 0.0 0 0 3.0000 30.0000" />
<path d="M3.0000 30.0000
L62.0000 30.0000
" />
<path d="M62.0000 0.0000
L3.0000 0.0000
" />
<path d="M65.0000 3.0000 A3.0000 3.0000 0.0 0 0 62.0000 0.0000" />
<path d="M62.0000 30.0000 A3.0000 3.0000 0.0 0 0 65.0000 27.0000" />
<path d="M65.0000 27.0000
L65.0000 3.0000
" />
<path style="fill:#000000; fill-opacity:1.0000; stroke:none;fill-rule:evenodd;"
d="M 43.8300,10.7600
43.7764,10.7493
43.7310,10.7190
43.7007,10.6736
43.6900,10.6200
43.6900,10.3400
43.7007,10.2864
43.7310,10.2410
43.7764,10.2107
43.8300,10.2000
44.1700,10.2000
44.2236,10.2107
44.2690,10.2410
44.2993,10.2864
44.3100,10.3400
44.3100,10.6200
44.2993,10.6736
44.2690,10.7190
44.2236,10.7493
44.1700,10.7600
Z" /> 
<path style="fill:#000000; fill-opacity:1.0000; stroke:none;fill-rule:evenodd;"
d="M 43.8300,9.8000
43.7764,9.7893
43.7310,9.7590
43.7007,9.7136
43.6900,9.6600
43.6900,9.3800
43.7007,9.3264
43.7310,9.2810
43.7764,9.2507
43.8300,9.2400
44.1700,9.2400
44.2236,9.2507
44.2690,9.2810
44.2993,9.3264
44.3100,9.3800
44.3100,9.6600
44.2993,9.7136
44.2690,9.7590
44.2236,9.7893
44.1700,9.8000
Z" /> 
<path style="fill:#000000; fill-opacity:1.0000; stroke:none;fill-rule:evenodd;"
d="M 14.8300,10.7600
14.7764,10.7493
14.7310,10.7190
14.7007,10.6736
14.6900,10.6200
14.6900,10.3400
14.7007,10.2864
14.7310,10.2410
14.7764,10.2107
14.8300,10.2000
15.1700,10.2000
15.2236,10.2107
15.2690,10.2410
15.2993,10.2864
15.3100,10.3400
15.3100,10.6200
15.2993,10.6736
15.2690,10.7190
15.2236,10.7493
15.1700,10.7600
Z" /> 
<path style="fill:#000000; fill-opacity:1.0000; stroke:none;fill-rule:evenodd;"
d="M 14.8300,9.8000
14.7764,9.7893
14.7310,9.7590
14.7007,9.7136
14.6900,9.6600
14.6900,9.3800
14.7007,9.3264
14.7310,9.2810
14.7764,9.2507
14.8300,9.2400
15.1700,9.2400
15.2236,9.2507
15.2690,9.2810
15.2993,9.3264
15.3100,9.3800
15.3100,9.6600
15.2993,9.7136
15.2690,9.7590
15.2236,9.7893
15.1700,9.8000
Z" /> 
<path style="fill:#000000; fill-opacity:1.0000; stroke:none;fill-rule:evenodd;"
d="M 52.8300,10.7600
52.7764,10.7493
52.7310,10.7190
52.7007,10.6736
52.6900,10.6200
52.6900,10.3400
52.7007,10.2864
52.7310,10.2410
52.7764,10.2107
52.8300,10.2000
53.1700,10.2000
53.2236,10.2107
53.2690,10.2410
53.2993,10.2864
53.3100,10.3400
53.3100,10.6200
53.2993,10.6736
53.2690,10.7190
53.2236,10.7493
53.1700,10.7600
Z" /> 
<path style="fill:#000000; fill-opacity:1.0000; stroke:none;fill-rule:evenodd;"
d="M 52.8300,9.8000
52.7764,9.7893
52.7310,9.7590
52.7007,9.7136
52.6900,9.6600
52.6900,9.3800
52.7007,9.3264
52.7310,9.2810
52.7764,9.2507
52.8300,9.2400
53.1700,9.2400
53.2236,9.2507
53.2690,9.2810
53.2993,9.3264
53.3100,9.3800
53.3100,9.6600
53.2993,9.7136
53.2690,9.7590
53.2236,9.7893
53.1700,9.8000
Z" /> 
<path style="fill:#000000; fill-opacity:1.0000; stroke:none;fill-rule:evenodd;"
d="M 16.4000,13.9500
16.4076,13.9117
16.4293,13.8793
16.4617,13.8576
16.5000,13.8500
17.7750,13.8500
17.8133,13.8576
17.8457,13.8793
17.8674,13.9117
17.8750,13.9500
17.8750,14.1500
17.8674,14.1883
17.8457,14.2207
17.8133,14.2424
17.7750,14.2500
16.5000,14.2500
16.4617,14.2424
16.4293,14.2207
16.4076,14.1883
16.4000,14.1500
Z" /> 
<path style="fill:#000000; fill-opacity:1.0000; stroke:none;fill-rule:evenodd;"
d="M 16.4000,14.6000
16.4076,14.5617
16.4293,14.5293
16.4617,14.5076
16.5000,14.5000
17.7750,14.5000
17.8133,14.5076
17.8457,14.5293
17.8674,14.5617
17.8750,14.6000
17.8750,14.8000
17.8674,14.8383
17.8457,14.8707
17.8133,14.8924
17.7750,14.9000
16.5000,14.9000
16.4617,14.8924
16.4293,14.8707
16.4076,14.8383
16.4000,14.8000
Z" /> 
<path style="fill:#000000; fill-opacity:1.0000; stroke:none;fill-rule:evenodd;"
d="M 16.4000,15.2500
16.4076,15.2117
16.4293,15.1793
16.4617,15.1576
16.5000,15.1500
17.7750,15.1500
17.8133,15.1576
17.8457,15.1793
17.8674,15.2117
17.8750,15.2500
17.8750,15.4500
17.8674,15.4883
17.8457,15.5207
17.8133,15.5424
17.7750,15.5500
16.5000,15.5500
16.4617,15.5424
16.4293,15.5207
16.4076,15.4883
16.4000,15.4500
Z" /> 
<path style="fill:#000000; fill-opacity:1.0000; stroke:none;fill-rule:evenodd;"
d="M 16.4000,15.9000
16.4076,15.8617
16.4293,15.8293
16.4617,15.8076
16.5000,15.8000
17.7750,15.8000
17.8133,15.8076
17.8457,15.8293
17.8674,15.8617
17.8750,15.9000
17.8750,16.1000
17.8674,16.1383
17.8457,16.1707
17.8133,16.1924
17.7750,16.2000
16.5000,16.2000
16.4617,16.1924
16.4293,16.1707
16.4076,16.1383
16.4000,16.1000
Z" /> 
<path style="fill:#000000; fill-opacity:1.0000; stroke:none;fill-rule:evenodd;"
d="M 16.4000,16.5500
16.4076,16.5117
16.4293,16.4793
16.4617,16.4576
16.5000,16.4500
17.7750,16.4500
17.8133,16.4576
17.8457,16.4793
17.8674,16.5117
17.8750,16.5500
17.8750,16.7500
17.8674,16.7883
17.8457,16.8207
17.8133,16.8424
17.7750,16.8500
16.5000,16.8500
16.4617,16.8424
16.4293,16.8207
16.4076,16.7883
16.4000,16.7500
Z" /> 
<path style="fill:#000000; fill-opacity:1.0000; stroke:none;fill-rule:evenodd;"
d="M 16.4000,17.2000
16.4076,17.1617
16.4293,17.1293
16.4617,17.1076
16.5000,17.1000
17.7750,17.1000
17.8133,17.1076
17.8457,17.1293
17.8674,17.1617
17.8750,17.2000
17.8750,17.4000
17.8674,17.4383
17.8457,17.4707
17.8133,17.4924
17.7750,17.5000
16.5000,17.5000
16.4617,17.4924
16.4293,17.4707
16.4076,17.4383
16.4000,17.4000
Z" /> 
<path style="fill:#000000; fill-opacity:1.0000; stroke:none;fill-rule:evenodd;"
d="M 16.4000,17.8500
16.4076,17.8117
16.4293,17.7793
16.4617,17.7576
16.5000,17.7500
17.7750,17.7500
17.8133,17.7576
17.8457,17.7793
17.8674,17.8117
17.8750,17.8500
17.8750,18.0500
17.8674,18.0883
17.8457,18.1207
17.8133,18.1424
17.7750,18.1500
16.5000,18.1500
16.4617,18.1424
16.4293,18.1207
16.4076,18.0883
16.4000,18.0500
Z" /> 
<path style="fill:#000000; fill-opacity:1.0000; stroke:none;fill-rule:evenodd;"
d="M 22.1250,17.8500
22.1326,17.8117
22.1543,17.7793
22.1867,17.7576
22.2250,17.7500
23.5000,17.7500
23.5383,17.7576
23.5707,17.7793
23.5924,17.8117
23.6000,17.8500
23.6000,18.0500
23.5924,18.0883
23.5707,18.1207
23.5383,18.1424
23.5000,18.1500
22.2250,18.1500
22.1867,18.1424
22.1543,18.1207
22.1326,18.0883
22.1250,18.0500
Z" /> 
<path style="fill:#000000; fill-opacity:1.0000; stroke:none;fill-rule:evenodd;"
d="M 22.1250,17.2000
22.1326,17.1617
22.1543,17.1293
22.1867,17.1076
22.2250,17.1000
23.5000,17.1000
23.5383,17.1076
23.5707,17.1293
23.5924,17.1617
23.6000,17.2000
23.6000,17.4000
23.5924,17.4383
23.5707,17.4707
23.5383,17.4924
23.5000,17.5000
22.2250,17.5000
22.1867,17.4924
22.1543,17.4707
22.1326,17.4383
22.1250,17.4000
Z" /> 
<path style="fill:#000000; fill-opacity:1.0000; stroke:none;fill-rule:evenodd;"
d="M 22.1250,16.5500
22.1326,16.5117
22.1543,16.4793
22.1867,16.4576
22.2250,16.4500
23.5000,16.4500
23.5383,16.4576
23.5707,16.4793
23.5924,16.5117
23.6000,16.5500
23.6000,16.7500
23.5924,16.7883
23.5707,16.8207
23.5383,16.8424
23.5000,16.8500
22.2250,16.8500
22.1867,16.8424
22.1543,16.8207
22.1326,16.7883
22.1250,16.7500
Z" /> 
<path style="fill:#000000; fill-opacity:1.0000; stroke:none;fill-rule:evenodd;"
d="M 22.1250,15.9000
22.1326,15.8617
22.1543,15.8293
22.1867,15.8076
22.2250,15.8000
23.5000,15.8000
23.5383,15.8076
23.5707,15.8293
23.5924,15.8617
23.6000,15.9000
23.6000,16.1000
23.5924,16.1383
23.5707,16.1707
23.5383,16.1924
23.5000,16.2000
22.2250,16.2000
22.1867,16.1924
22.1543,16.1707
22.1326,16.1383
22.1250,16.1000
Z" /> 
<path style="fill:#000000; fill-opacity:1.0000; stroke:none;fill-rule:evenodd;"
d="M 22.1250,15.2500
22.1326,15.2117
22.1543,15.1793
22.1867,15.1576
22.2250,15.1500
23.5000,15.1500
23.5383,15.1576
23.5707,15.1793
23.5924,15.2117
23.6000,15.2500
23.6000,15.4500
23.5924,15.4883
23.5707,15.5207
23.5383,15.5424
23.5000,15.5500
22.2250,15.5500
22.1867,15.5424
22.1543,15.5207
22.1326,15.4883
22.1250,15.4500
Z" /> 
<path style="fill:#000000; fill-opacity:1.0000; stroke:none;fill-rule:evenodd;"
d="M 22.1250,14.6000
22.1326,14.5617
22.1543,14.5293
22.1867,14.5076
22.2250,14.5000
23.5000,14.5000
23.5383,14.5076
23.5707,14.5293
23.5924,14.5617
23.6000,14.6000
23.6000,14.8000
23.5924,14.8383
23.5707,14.8707
23.5383,14.8924
23.5000,14.9000
22.2250,14.9000
22.1867,14.8924
22.1543,14.8707
22.1326,14.8383
22.1250,14.8000
Z" /> 
<path style="fill:#000000; fill-opacity:1.0000; stroke:none;fill-rule:evenodd;"
d="M 22.1250,13.9500
22.1326,13.9117
22.1543,13.8793
22.1867,13.8576
22.2250,13.8500
23.5000,13.8500
23.5383,13.8576
23.5707,13.8793
23.5924,13.9117
23.6000,13.9500
23.6000,14.1500
23.5924,14.1883
23.5707,14.2207
23.5383,14.2424
23.5000,14.2500
22.2250,14.2500
22.1867,14.2424
22.1543,14.2207
22.1326,14.1883
22.1250,14.1500
Z" /> 
<path style="fill:#000000; fill-opacity:1.0000; stroke:none;fill-rule:evenodd;"
d="M 58.1500,22.8500
58.1500,21.1500
59.8500,21.1500
59.8500,22.8500
Z" /> 
</g>
<g style="fill:#000000; fill-opacity:1.0000; stroke:none;">
<circle cx="59.0000" cy="24.5400" r="0.8500" /> 
<path style="fill:#000000; fill-opacity:1.0000; stroke:none;fill-rule:evenodd;"
d="M 40.8150,16.7800
40.7633,16.7697
40.7195,16.7405
40.6903,16.6967
40.6800,16.6450
40.6800,16.3750
40.6903,16.3233
40.7195,16.2795
40.7633,16.2503
40.8150,16.2400
41.1850,16.2400
41.2367,16.2503
41.2805,16.2795
41.3097,16.3233
41.3200,16.3750
41.3200,16.6450
41.3097,16.6967
41.2805,16.7405
41.2367,16.7697
41.1850,16.7800
Z" /> 
<path style="fill:#000000; fill-opacity:1.0000; stroke:none;fill-rule:evenodd;"
d="M 40.8150,15.7600
40.7633,15.7497
40.7195,15.7205
40.6903,15.6767
40.6800,15.6250
40.6800,15.3550
40.6903,15.3033
40.7195,15.2595
40.7633,15.2303
40.8150,15.2200
41.1850,15.2200
41.2367,15.2303
41.2805,15.2595
41.3097,15.3033
41.3200,15.3550
41.3200,15.6250
41.3097,15.6767
41.2805,15.7205
41.2367,15.7497
41.1850,15.7600
Z" /> 
<path style="fill:#000000; fill-opacity:1.0000; stroke:none;fill-rule:evenodd;"
d="M 34.8500,28.8500
33.1500,28.8500
33.1500,27.1500
34.8500,27.1500
Z" /> 
<circle cx="36.5400" cy="28.0000" r="0.8500" /> 
<circle cx="39.0800" cy="28.0000" r="0.8500" /> 
<circle cx="41.6200" cy="28.0000" r="0.8500" /> 
<circle cx="44.1600" cy="28.0000" r="0.8500" /> 
<circle cx="46.7000" cy="28.0000" r="0.8500" /> 
<circle cx="49.2400" cy="28.0000" r="0.8500" /> 
<circle cx="51.7800" cy="28.0000" r="0.8500" /> 
<path style="fill:#000000; fill-opacity:1.0000; stroke:none;fill-rule:evenodd;"
d="M 23.8300,10.7600
23.7764,10.7493
23.7310,10.7190
23.7007,10.6736
23.6900,10.6200
23.6900,10.3400
23.7007,10.2864
23.7310,10.2410
23.7764,10.2107
23.8300,10.2000
24.1700,10.2000
24.2236,10.2107
24.2690,10.2410
24.2993,10.2864
24.3100,10.3400
24.3100,10.6200
24.2993,10.6736
24.2690,10.7190
24.2236,10.7493
24.1700,10.7600
Z" /> 
<path style="fill:#000000; fill-opacity:1.0000; stroke:none;fill-rule:evenodd;"
d="M 23.8300,9.8000
23.7764,9.7893
23.7310,9.7590
23.7007,9.7136
23.6900,9.6600
23.6900,9.3800
23.7007,9.3264
23.7310,9.2810
23.7764,9.2507
23.8300,9.2400
24.1700,9.2400
24.2236,9.2507
24.2690,9.2810
24.2993,9.3264
24.3100,9.3800
24.3100,9.6600
24.2993,9.7136
24.2690,9.7590
24.2236,9.7893
24.1700,9.8000
Z" /> 
<path style="fill:#000000; fill-opacity:1.0000; stroke:none;fill-rule:evenodd;"
d="M 11.8150,16.7800
11.7633,16.7697
11.7195,16.7405
11.6903,16.6967
11.6800,16.6450
11.6800,16.3750
11.6903,16.3233
11.7195,16.2795
11.7633,16.2503
11.8150,16.2400
12.1850,16.2400
12.2367,16.2503
12.2805,16.2795
12.3097,16.3233
12.3200,16.3750
12.3200,16.6450
12.3097,16.6967
12.2805,16.7405
12.2367,16.7697
12.1850,16.7800
Z" /> 
<path style="fill:#000000; fill-opacity:1.0000; stroke:none;fill-rule:evenodd;"
d="M 11.8150,15.7600
11.7633,15.7497
11.7195,15.7205
11.6903,15.6767
11.6800,15.6250
11.6800,15.3550
11.6903,15.3033
11.7195,15.2595
11.7633,15.2303
11.8150,15.2200
12.1850,15.2200
12.2367,15.2303
12.2805,15.2595
12.3097,15.3033
12.3200,15.3550
12.3200,15.6250
12.3097,15.6767
12.2805,15.7205
12.2367,15.7497
12.1850,15.7600
Z" /> 
<path style="fill:#000000; fill-opacity:1.0000; stroke:none;fill-rule:evenodd;"
d="M 7.1500,22.8500
7.1500,21.1500
8.8500,21.1500
8.8500,22.8500
Z" /> 
<circle cx="8.0000" cy="24.5400" r="0.8500" /> 
<path style="fill:#000000; fill-opacity:1.0000; stroke:none;fill-rule:evenodd;"
d="M 45.4000,13.9500
45.4076,13.9117
45.4293,13.8793
45.4617,13.8576
45.5000,13.8500
46.7750,13.8500
46.8133,13.8576
46.8457,13.8793
46.8674,13.9117
46.8750,13.9500
46.8750,14.1500
46.8674,14.1883
46.8457,14.2207
46.8133,14.2424
46.7750,14.2500
45.5000,14.2500
45.4617,14.2424
45.4293,14.2207
45.4076,14.1883
45.4000,14.1500
Z" /> 
<path style="fill:#000000; fill-opacity:1.0000; stroke:none;fill-rule:evenodd;"
d="M 45.4000,14.6000
45.4076,14.5617
45.4293,14.5293
45.4617,14.5076
45.5000,14.5000
46.7750,14.5000
46.8133,14.5076
46.8457,14.5293
46.8674,14.5617
46.8750,14.6000
46.8750,14.8000
46.8674,14.8383
46.8457,14.8707
46.8133,14.8924
46.7750,14.9000
45.5000,14.9000
45.4617,14.8924
45.4293,14.8707
45.4076,14.8383
45.4000,14.8000
Z" /> 
<path style="fill:#000000; fill-opacity:1.0000; stroke:none;fill-rule:evenodd;"
d="M 45.4000,15.2500
45.4076,15.2117
45.4293,15.1793
45.4617,15.1576
45.5000,15.1500
46.7750,15.1500
46.8133,15.1576
46.8457,15.1793
46.8674,15.2117
46.8750,15.2500
46.8750,15.4500
46.8674,15.4883
46.8457,15.5207
46.8133,15.5424
46.7750,15.5500
45.5000,15.5500
45.4617,15.5424
45.4293,15.5207
45.4076,15.4883
45.4000,15.4500
Z" /> 
<path style="fill:#000000; fill-opacity:1.0000; stroke:none;fill-rule:evenodd;"
d="M 45.4000,15.9000
45.4076,15.8617
45.4293,15.8293
45.4617,15.8076
45.5000,15.8000
46.7750,15.8000
46.8133,15.8076
46.8457,15.8293
46.8674,15.8617
46.8750,15.9000
46.8750,16.1000
46.8674,16.1383
46.8457,16.1707
46.8133,16.1924
46.7750,16.2000
45.5000,16.2000
45.4617,16.1924
45.4293,16.1707
45.4076,16.1383
45.4000,16.1000
Z" /> 
<path style="fill:#000000; fill-opacity:1.0000; stroke:none;fill-rule:evenodd;"
d="M 45.4000,16.5500
45.4076,16.5117
45.4293,16.4793
45.4617,16.4576
45.5000,16.4500
46.7750,16.4500
46.8133,16.4576
46.8457,16.4793
46.8674,16.5117
46.8750,16.5500
46.8750,16.7500
46.8674,16.7883
46.8457,16.8207
46.8133,16.8424
46.7750,16.8500
45.5000,16.8500
45.4617,16.8424
45.4293,16.8207
45.4076,16.7883
45.4000,16.7500
Z" /> 
<path style="fill:#000000; fill-opacity:1.0000; stroke:none;fill-rule:evenodd;"
d="M 45.4000,17.2000
45.4076,17.1617
45.4293,17.1293
45.4617,17.1076
45.5000,17.1000
46.7750,17.1000
46.8133,17.1076
46.8457,17.1293
46.8674,17.1617
46.8750,17.2000
46.8750,17.4000
46.8674,17.4383
46.8457,17.4707
46.8133,17.4924
46.7750,17.5000
45.5000,17.5000
45.4617,17.4924
45.4293,17.4707
45.4076,17.4383
45.4000,17.4000
Z" /> 
<path style="fill:#000000; fill-opacity:1.0000; stroke:none;fill-rule:evenodd;"
d="M 45.4000,17.8500
45.4076,17.8117
45.4293,17.7793
45.4617,17.7576
45.5000,17.7500
46.7750,17.7500
46.8133,17.7576
46.8457,17.7793
46.8674,17.8117
46.8750,17.8500
46.8750,18.0500
46.8674,18.0883
46.8457,18.1207
46.8133,18.1424
46.7750,18.1500
45.5000,18.1500
45.4617,18.1424
45.4293,18.1207
45.4076,18.0883
45.4000,18.0500
Z" /> 
<path style="fill:#000000; fill-opacity:1.0000; stroke:none;fill-rule:evenodd;"
d="M 51.1250,17.8500
51.1326,17.8117
51.1543,17.7793
51.1867,17.7576
51.2250,17.7500
52.5000,17.7500
52.5383,17.7576
52.5707,17.7793
52.5924,17.8117
52.6000,17.8500
52.6000,18.0500
52.5924,18.0883
52.5707,18.1207
52.5383,18.1424
52.5000,18.1500
51.2250,18.1500
51.1867,18.1424
51.1543,18.1207
51.1326,18.0883
51.1250,18.0500
Z" /> 
<path style="fill:#000000; fill-opacity:1.0000; stroke:none;fill-rule:evenodd;"
d="M 51.1250,17.2000
51.1326,17.1617
51.1543,17.1293
51.1867,17.1076
51.2250,17.1000
52.5000,17.1000
52.5383,17.1076
52.5707,17.1293
52.5924,17.1617
52.6000,17.2000
52.6000,17.4000
52.5924,17.4383
52.5707,17.4707
52.5383,17.4924
52.5000,17.5000
51.2250,17.5000
51.1867,17.4924
51.1543,17.4707
51.1326,17.4383
51.1250,17.4000
Z" /> 
<path style="fill:#000000; fill-opacity:1.0000; stroke:none;fill-rule:evenodd;"
d="M 51.1250,16.5500
51.1326,16.5117
51.1543,16.4793
51.1867,16.4576
51.2250,16.4500
52.5000,16.4500
52.5383,16.4576
52.5707,16.4793
52.5924,16.5117
52.6000,16.5500
52.6000,16.7500
52.5924,16.7883
52.5707,16.8207
52.5383,16.8424
52.5000,16.8500
51.2250,16.8500
51.1867,16.8424
51.1543,16.8207
51.1326,16.7883
51.1250,16.7500
Z" /> 
<path style="fill:#000000; fill-opacity:1.0000; stroke:none;fill-rule:evenodd;"
d="M 51.1250,15.9000
51.1326,15.8617
51.1543,15.8293
51.1867,15.8076
51.2250,15.8000
52.5000,15.8000
52.5383,15.8076
52.5707,15.8293
52.5924,15.8617
52.6000,15.9000
52.6000,16.1000
52.5924,16.1383
52.5707,16.1707
52.5383,16.1924
52.5000,16.2000
51.2250,16.2000
51.1867,16.1924
51.1543,16.1707
51.1326,16.1383
51.1250,16.1000
Z" /> 
<path style="fill:#000000; fill-opacity:1.0000; stroke:none;fill-rule:evenodd;"
d="M 51.1250,15.2500
51.1326,15.2117
51.1543,15.1793
51.1867,15.1576
51.2250,15.1500
52.5000,15.1500
52.5383,15.1576
52.5707,15.1793
52.5924,15.2117
52.6000,15.2500
52.6000,15.4500
52.5924,15.4883
52.5707,15.5207
52.5383,15.5424
52.5000,15.5500
51.2250,15.5500
51.1867,15.5424
51.1543,15.5207
51.1326,15.4883
51.1250,15.4500
Z" /> 
<path style="fill:#000000; fill-opacity:1.0000; stroke:none;fill-rule:evenodd;"
d="M 51.1250,14.6000
51.1326,14.5617
51.1543,14.5293
51.1867,14.5076
51.2250,14.5000
52.5000,14.5000
52.5383,14.5076
52.5707,14.5293
52.5924,14.5617
52.6000,14.6000
52.6000,14.8000
52.5924,14.8383
52.5707,14.8707
52.5383,14.8924
52.5000,14.9000
51.2250,14.9000
51.1867,14.8924
51.1543,14.8707
51.1326,14.8383
51.1250,14.8000
Z" /> 
<path style="fill:#000000; fill-opacity:1.0000; stroke:none;fill-rule:evenodd;"
d="M 51.1250,13.9500
51.1326,13.9117
51.1543,13.8793
51.1867,13.8576
51.2250,13.8500
52.5000,13.8500
52.5383,13.8576
52.5707,13.8793
52.5924,13.9117
52.6000,13.9500
52.6000,14.1500
52.5924,14.1883
52.5707,14.2207
52.5383,14.2424
52.5000,14.2500
51.2250,14.2500
51.1867,14.2424
51.1543,14.2207
51.1326,14.1883
51.1250,14.1500
Z" /> 
<path style="fill:#000000; fill-opacity:1.0000; stroke:none;fill-rule:evenodd;"
d="M 7.5200,3.9200
9.2200,3.9200
9.2200,5.6200
7.5200,5.6200
Z" /> 
<circle cx="8.3700" cy="2.2300" r="0.8500" /> 
<circle cx="10.9100" cy="4.7700" r="0.8500" /> 
<circle cx="10.9100" cy="2.2300" r="0.8500" /> 
<circle cx="13.4500" cy="4.7700" r="0.8500" /> 
<circle cx="13.4500" cy="2.2300" r="0.8500" /> 
<circle cx="15.9900" cy="4.7700" r="0.8500" /> 
<circle cx="15.9900" cy="2.2300" r="0.8500" /> 
<circle cx="18.5300" cy="4.7700" r="0.8500" /> 
<circle cx="18.5300" cy="2.2300" r="0.8500" /> 
<circle cx="21.0700" cy="4.7700" r="0.8500" /> 
<circle cx="21.0700" cy="2.2300" r="0.8500" /> 
<circle cx="23.6100" cy="4.7700" r="0.8500" /> 
<circle cx="23.6100" cy="2.2300" r="0.8500" /> 
<circle cx="26.1500" cy="4.7700" r="0.8500" /> 
<circle cx="26.1500" cy="2.2300" r="0.8500" /> 
<circle cx="28.6900" cy="4.7700" r="0.8500" /> 
<circle cx="28.6900" cy="2.2300" r="0.8500" /> 
<circle cx="31.2300" cy="4.7700" r="0.8500" /> 
<circle cx="31.2300" cy="2.2300" r="0.8500" /> 
<circle cx="33.7700" cy="4.7700" r="0.8500" /> 
<circle cx="33.7700" cy="2.2300" r="0.8500" /> 
<circle cx="36.3100" cy="4.7700" r="0.8500" /> 
<circle cx="36.3100" cy="2.2300" r="0.8500" /> 
<circle cx="38.8500" cy="4.7700" r="0.8500" /> 
<circle cx="38.8500" cy="2.2300" r="0.8500" /> 
<circle cx="41.3900" cy="4.7700" r="0.8500" /> 
<circle cx="41.3900" cy="2.2300" r="0.8500" /> 
<circle cx="43.9300" cy="4.7700" r="0.8500" /> 
<circle cx="43.9300" cy="2.2300" r="0.8500" /> 
<circle cx="46.4700" cy="4.7700" r="0.8500" /> 
<circle cx="46.4700" cy="2.2300" r="0.8500" /> 
<circle cx="49.0100" cy="4.7700" r="0.8500" /> 
<circle cx="49.0100" cy="2.2300" r="0.8500" /> 
<circle cx="51.5500" cy="4.7700" r="0.8500" /> 
<circle cx="51.5500" cy="2.2300" r="0.8500" /> 
<circle cx="54.0900" cy="4.7700" r="0.8500" /> 
<circle cx="54.0900" cy="2.2300" r="0.8500" /> 
<circle cx="56.6300" cy="4.7700" r="0.8500" /> 
<circle cx="56.6300" cy="2.2300" r="0.8500" /> 
</g>
<g style="fill:none; 
stroke:#000000; stroke-width:0.1500; stroke-opacity:1; 
stroke-linecap:round; stroke-linejoin:round;">
<g transform="rotate(-90.000000 45.1600 10.0000)">
<text x="45.1600" y="10.5000"
textLength="4.0119" font-size="1.3333" lengthAdjust="spacingAndGlyphs"
text-anchor="middle" opacity="0" stroke-opacity="0">100n</text>
</g>
<g class="stroked-text"><desc>100n</desc>
<path d="M45.6148 11.1190
L45.6148 11.6905
" />
<path d="M45.6148 11.4048
L44.6148 11.4048
" />
<path d="M44.6148 11.4048
L44.7577 11.5000
" />
<path d="M44.7577 11.5000
L44.8529 11.5952
" />
<path d="M44.8529 11.5952
L44.9005 11.6905
" />
<path d="M44.6148 10.5000
L44.6148 10.4048
" />
<path d="M44.6148 10.4048
L44.6624 10.3095
" />
<path d="M44.6624 10.3095
L44.7101 10.2619
" />
<path d="M44.7101 10.2619
L44.8053 10.2143
" />
<path d="M44.8053 10.2143
L44.9958 10.1667
" />
<path d="M44.9958 10.1667
L45.2339 10.1667
" />
<path d="M45.2339 10.1667
L45.4243 10.2143
" />
<path d="M45.4243 10.2143
L45.5196 10.2619
" />
<path d="M45.5196 10.2619
L45.5672 10.3095
" />
<path d="M45.5672 10.3095
L45.6148 10.4048
" />
<path d="M45.6148 10.4048
L45.6148 10.5000
" />
<path d="M45.6148 10.5000
L45.5672 10.5952
" />
<path d="M45.5672 10.5952
L45.5196 10.6429
" />
<path d="M45.5196 10.6429
L45.4243 10.6905
" />
<path d="M45.4243 10.6905
L45.2339 10.7381
" />
<path d="M45.2339 10.7381
L44.9958 10.7381
" />
<path d="M44.9958 10.7381
L44.8053 10.6905
" />
<path d="M44.8053 10.6905
L44.7101 10.6429
" />
<path d="M44.7101 10.6429
L44.6624 10.5952
" />
<path d="M44.6624 10.5952
L44.6148 10.5000
" />
<path d="M44.6148 9.5476
L44.6148 9.4524
" />
<path d="M44.6148 9.4524
L44.6624 9.3571
" />
<path d="M44.6624 9.3571
L44.7101 9.3095
" />
<path d="M44.7101 9.3095
L44.8053 9.2619
" />
<path d="M44.8053 9.2619
L44.9958 9.2143
" />
<path d="M44.9958 9.2143
L45.2339 9.2143
" />
<path d="M45.2339 9.2143
L45.4243 9.2619
" />
<path d="M45.4243 9.2619
L45.5196 9.3095
" />
<path d="M45.5196 9.3095
L45.5672 9.3571
" />
<path d="M45.5672 9.3571
L45.6148 9.4524
" />
<path d="M45.6148 9.4524
L45.6148 9.5476
" />
<path d="M45.6148 9.5476
L45.5672 9.6429
" />
<path d="M45.5672 9.6429
L45.5196 9.6905
" />
<path d="M45.5196 9.6905
L45.4243 9.7381
" />
<path d="M45.4243 9.7381
L45.2339 9.7857
" />
<path d="M45.2339 9.7857
L44.9958 9.7857
" />
<path d="M44.9958 9.7857
L44.8053 9.7381
" />
<path d="M44.8053 9.7381
L44.7101 9.6905
" />
<path d="M44.7101 9.6905
L44.6624 9.6429
" />
<path d="M44.6624 9.6429
L44.6148 9.5476
" />
<path d="M44.9482 8.7857
L45.6148 8.7857
" />
<path d="M45.0434 8.7857
L44.9958 8.7381
" />
<path d="M44.9958 8.7381
L44.9482 8.6429
" />
<path d="M44.9482 8.6429
L44.9482 8.5000
" />
<path d="M44.9482 8.5000
L44.9958 8.4048
" />
<path d="M44.9958 8.4048
L45.0910 8.3571
" />
<path d="M45.0910 8.3571
L45.6148 8.3571
" />
</g></g>
<g style="fill:none; 
stroke:#000000; stroke-width:0.0400; stroke-opacity:1; 
stroke-linecap:round; stroke-linejoin:round;">
<g transform="rotate(-90.000000 44.0000 10.0000)">
<text x="44.0000" y="10.1250"
textLength="0.5581" font-size="0.3333" lengthAdjust="spacingAndGlyphs"
text-anchor="middle" opacity="0" stroke-opacity="0">C4</text>
</g>
<g class="stroked-text"><desc>C4</desc>
<path d="M44.0898 10.0417
L44.1017 10.0536
" />
<path d="M44.1017 10.0536
L44.1136 10.0893
" />
<path d="M44.1136 10.0893
L44.1136 10.1131
" />
<path d="M44.1136 10.1131
L44.1017 10.1488
" />
<path d="M44.1017 10.1488
L44.0779 10.1726
" />
<path d="M44.0779 10.1726
L44.0540 10.1845
" />
<path d="M44.0540 10.1845
L44.0064 10.1964
" />
<path d="M44.0064 10.1964
L43.9707 10.1964
" />
<path d="M43.9707 10.1964
L43.9231 10.1845
" />
<path d="M43.9231 10.1845
L43.8993 10.1726
" />
<path d="M43.8993 10.1726
L43.8755 10.1488
" />
<path d="M43.8755 10.1488
L43.8636 10.1131
" />
<path d="M43.8636 10.1131
L43.8636 10.0893
" />
<path d="M43.8636 10.0893
L43.8755 10.0536
" />
<path d="M43.8755 10.0536
L43.8874 10.0417
" />
<path d="M43.9469 9.8274
L44.1136 9.8274
" />
<path d="M43.8517 9.8869
L44.0302 9.9464
" />
<path d="M44.0302 9.9464
L44.0302 9.7917
" />
</g></g>
<g style="fill:none; 
stroke:#000000; stroke-width:0.1500; stroke-opacity:1; 
stroke-linecap:round; stroke-linejoin:round;">
<g transform="rotate(-90.000000 16.1600 10.0000)">
<text x="16.1600" y="10.5000"
textLength="4.0119" font-size="1.3333" lengthAdjust="spacingAndGlyphs"
text-anchor="middle" opacity="0" stroke-opacity="0">100n</text>
</g>
<g class="stroked-text"><desc>100n</desc>
<path d="M16.6148 11.1190
L16.6148 11.6905
" />
<path d="M16.6148 11.4048
L15.6148 11.4048
" />
<path d="M15.6148 11.4048
L15.7577 11.5000
" />
<path d="M15.7577 11.5000
L15.8529 11.5952
" />
<path d="M15.8529 11.5952
L15.9005 11.6905
" />
<path d="M15.6148 10.5000
L15.6148 10.4048
" />
<path d="M15.6148 10.4048
L15.6624 10.3095
" />
<path d="M15.6624 10.3095
L15.7101 10.2619
" />
<path d="M15.7101 10.2619
L15.8053 10.2143
" />
<path d="M15.8053 10.2143
L15.9958 10.1667
" />
<path d="M15.9958 10.1667
L16.2339 10.1667
" />
<path d="M16.2339 10.1667
L16.4243 10.2143
" />
<path d="M16.4243 10.2143
L16.5196 10.2619
" />
<path d="M16.5196 10.2619
L16.5672 10.3095
" />
<path d="M16.5672 10.3095
L16.6148 10.4048
" />
<path d="M16.6148 10.4048
L16.6148 10.5000
" />
<path d="M16.6148 10.5000
L16.5672 10.5952
" />
<path d="M16.5672 10.5952
L16.5196 10.6429
" />
<path d="M16.5196 10.6429
L16.4243 10.6905
" />
<path d="M16.4243 10.6905
L16.2339 10.7381
" />
<path d="M16.2339 10.7381
L15.9958 10.7381
" />
<path d="M15.9958 10.7381
L15.8053 10.6905
" />
<path d="M15.8053 10.6905
L15.7101 10.6429
" />
<path d="M15.7101 10.6429
L15.6624 10.5952
" />
<path d="M15.6624 10.5952
L15.6148 10.5000
" />
<path d="M15.6148 9.5476
L15.6148 9.4524
" />
<path d="M15.6148 9.4524
L15.6624 9.3571
" />
<path d="M15.6624 9.3571
L15.7101 9.3095
" />
<path d="M15.7101 9.3095
L15.8053 9.2619
" />
<path d="M15.8053 9.2619
L15.9958 9.2143
" />
<path d="M15.9958 9.2143
L16.2339 9.2143
" />
<path d="M16.2339 9.2143
L16.4243 9.2619
" />
<path d="M16.4243 9.2619
L16.5196 9.3095
" />
<path d="M16.5196 9.3095
L16.5672 9.3571
" />
<path d="M16.5672 9.3571
L16.6148 9.4524
" />
<path d="M16.6148 9.4524
L16.6148 9.5476
" />
<path d="M16.6148 9.5476
L16.5672 9.6429
" />
<path d="M16.5672 9.6429
L16.5196 9.6905
" />
<path d="M16.5196 9.6905
L16.4243 9.7381
" />
<path d="M16.4243 9.7381
L16.2339 9.7857
" />
<path d="M16.2339 9.7857
L15.9958 9.7857
" />
<path d="M15.9958 9.7857
L15.8053 9.7381
" />
<path d="M15.8053 9.7381
L15.7101 9.6905
" />
<path d="M15.7101 9.6905
L15.6624 9.6429
" />
<path d="M15.6624 9.6429
L15.6148 9.5476
" />
<path d="M15.9482 8.7857
L16.6148 8.7857
" />
<path d="M16.0434 8.7857
L15.9958 8.7381
" />
<path d="M15.9958 8.7381
L15.9482 8.6429
" />
<path d="M15.9482 8.6429
L15.9482 8.5000
" />
<path d="M15.9482 8.5000
L15.9958 8.4048
" />
<path d="M15.9958 8.4048
L16.0910 8.3571
" />
<path d="M16.0910 8.3571
L16.6148 8.3571
" />
</g></g>
<g style="fill:none; 
stroke:#000000; stroke-width:0.0400; stroke-opacity:1; 
stroke-linecap:round; stroke-linejoin:round;">
<g transform="rotate(-90.000000 15.0000 10.0000)">
<text x="15.0000" y="10.1250"
textLength="0.5581" font-size="0.3333" lengthAdjust="spacingAndGlyphs"
text-anchor="middle" opacity="0" stroke-opacity="0">C2</text>
</g>
<g class="stroked-text"><desc>C2</desc>
<path d="M15.0898 10.0417
L15.1017 10.0536
" />
<path d="M15.1017 10.0536
L15.1136 10.0893
" />
<path d="M15.1136 10.0893
L15.1136 10.1131
" />
<path d="M15.1136 10.1131
L15.1017 10.1488
" />
<path d="M15.1017 10.1488
L15.0779 10.1726
" />
<path d="M15.0779 10.1726
L15.0541 10.1845
" />
<path d="M15.0541 10.1845
L15.0064 10.1964
" />
<path d="M15.0064 10.1964
L14.9707 10.1964
" />
<path d="M14.9707 10.1964
L14.9231 10.1845
" />
<path d="M14.9231 10.1845
L14.8993 10.1726
" />
<path d="M14.8993 10.1726
L14.8755 10.1488
" />
<path d="M14.8755 10.1488
L14.8636 10.1131
" />
<path d="M14.8636 10.1131
L14.8636 10.0893
" />
<path d="M14.8636 10.0893
L14.8755 10.0536
" />
<path d="M14.8755 10.0536
L14.8874 10.0417
" />
<path d="M14.8874 9.9464
L14.8755 9.9345
" />
<path d="M14.8755 9.9345
L14.8636 9.9107
" />
<path d="M14.8636 9.9107
L14.8636 9.8512
" />
<path d="M14.8636 9.8512
L14.8755 9.8274
" />
<path d="M14.8755 9.8274
L14.8874 9.8155
" />
<path d="M14.8874 9.8155
L14.9112 9.8036
" />
<path d="M14.9112 9.8036
L14.9350 9.8036
" />
<path d="M14.9350 9.8036
L14.9707 9.8155
" />
<path d="M14.9707 9.8155
L15.1136 9.9583
" />
<path d="M15.1136 9.9583
L15.1136 9.8036
" />
</g></g>
<g style="fill:none; 
stroke:#000000; stroke-width:0.1500; stroke-opacity:1; 
stroke-linecap:round; stroke-linejoin:round;">
<g transform="rotate(-90.000000 54.1600 10.0000)">
<text x="54.1600" y="10.5000"
textLength="4.0119" font-size="1.3333" lengthAdjust="spacingAndGlyphs"
text-anchor="middle" opacity="0" stroke-opacity="0">100n</text>
</g>
<g class="stroked-text"><desc>100n</desc>
<path d="M54.6148 11.1190
L54.6148 11.6905
" />
<path d="M54.6148 11.4048
L53.6148 11.4048
" />
<path d="M53.6148 11.4048
L53.7577 11.5000
" />
<path d="M53.7577 11.5000
L53.8529 11.5952
" />
<path d="M53.8529 11.5952
L53.9005 11.6905
" />
<path d="M53.6148 10.5000
L53.6148 10.4048
" />
<path d="M53.6148 10.4048
L53.6624 10.3095
" />
<path d="M53.6624 10.3095
L53.7101 10.2619
" />
<path d="M53.7101 10.2619
L53.8053 10.2143
" />
<path d="M53.8053 10.2143
L53.9958 10.1667
" />
<path d="M53.9958 10.1667
L54.2339 10.1667
" />
<path d="M54.2339 10.1667
L54.4243 10.2143
" />
<path d="M54.4243 10.2143
L54.5196 10.2619
" />
<path d="M54.5196 10.2619
L54.5672 10.3095
" />
<path d="M54.5672 10.3095
L54.6148 10.4048
" />
<path d="M54.6148 10.4048
L54.6148 10.5000
" />
<path d="M54.6148 10.5000
L54.5672 10.5952
" />
<path d="M54.5672 10.5952
L54.5196 10.6429
" />
<path d="M54.5196 10.6429
L54.4243 10.6905
" />
<path d="M54.4243 10.6905
L54.2339 10.7381
" />
<path d="M54.2339 10.7381
L53.9958 10.7381
" />
<path d="M53.9958 10.7381
L53.8053 10.6905
" />
<path d="M53.8053 10.6905
L53.7101 10.6429
" />
<path d="M53.7101 10.6429
L53.6624 10.5952
" />
<path d="M53.6624 10.5952
L53.6148 10.5000
" />
<path d="M53.6148 9.5476
L53.6148 9.4524
" />
<path d="M53.6148 9.4524
L53.6624 9.3571
" />
<path d="M53.6624 9.3571
L53.7101 9.3095
" />
<path d="M53.7101 9.3095
L53.8053 9.2619
" />
<path d="M53.8053 9.2619
L53.9958 9.2143
" />
<path d="M53.9958 9.2143
L54.2339 9.2143
" />
<path d="M54.2339 9.2143
L54.4243 9.2619
" />
<path d="M54.4243 9.2619
L54.5196 9.3095
" />
<path d="M54.5196 9.3095
L54.5672 9.3571
" />
<path d="M54.5672 9.3571
L54.6148 9.4524
" />
<path d="M54.6148 9.4524
L54.6148 9.5476
" />
<path d="M54.6148 9.5476
L54.5672 9.6429
" />
<path d="M54.5672 9.6429
L54.5196 9.6905
" />
<path d="M54.5196 9.6905
L54.4243 9.7381
" />
<path d="M54.4243 9.7381
L54.2339 9.7857
" />
<path d="M54.2339 9.7857
L53.9958 9.7857
" />
<path d="M53.9958 9.7857
L53.8053 9.7381
" />
<path d="M53.8053 9.7381
L53.7101 9.6905
" />
<path d="M53.7101 9.6905
L53.6624 9.6429
" />
<path d="M53.6624 9.6429
L53.6148 9.5476
" />
<path d="M53.9482 8.7857
L54.6148 8.7857
" />
<path d="M54.0434 8.7857
L53.9958 8.7381
" />
<path d="M53.9958 8.7381
L53.9482 8.6429
" />
<path d="M53.9482 8.6429
L53.9482 8.5000
" />
<path d="M53.9482 8.5000
L53.9958 8.4048
" />
<path d="M53.9958 8.4048
L54.0910 8.3571
" />
<path d="M54.0910 8.3571
L54.6148 8.3571
" />
</g></g>
<g style="fill:none; 
stroke:#000000; stroke-width:0.0400; stroke-opacity:1; 
stroke-linecap:round; stroke-linejoin:round;">
<g transform="rotate(-90.000000 53.0000 10.0000)">
<text x="53.0000" y="10.1250"
textLength="0.5581" font-size="0.3333" lengthAdjust="spacingAndGlyphs"
text-anchor="middle" opacity="0" stroke-opacity="0">C5</text>
</g>
<g class="stroked-text"><desc>C5</desc>
<path d="M53.0898 10.0417
L53.1017 10.0536
" />
<path d="M53.1017 10.0536
L53.1136 10.0893
" />
<path d="M53.1136 10.0893
L53.1136 10.1131
" />
<path d="M53.1136 10.1131
L53.1017 10.1488
" />
<path d="M53.1017 10.1488
L53.0779 10.1726
" />
<path d="M53.0779 10.1726
L53.0540 10.1845
" />
<path d="M53.0540 10.1845
L53.0064 10.1964
" />
<path d="M53.0064 10.1964
L52.9707 10.1964
" />
<path d="M52.9707 10.1964
L52.9231 10.1845
" />
<path d="M52.9231 10.1845
L52.8993 10.1726
" />
<path d="M52.8993 10.1726
L52.8755 10.1488
" />
<path d="M52.8755 10.1488
L52.8636 10.1131
" />
<path d="M52.8636 10.1131
L52.8636 10.0893
" />
<path d="M52.8636 10.0893
L52.8755 10.0536
" />
<path d="M52.8755 10.0536
L52.8874 10.0417
" />
<path d="M52.8636 9.8155
L52.8636 9.9345
" />
<path d="M52.8636 9.9345
L52.9826 9.9464
" />
<path d="M52.9826 9.9464
L52.9707 9.9345
" />
<path d="M52.9707 9.9345
L52.9588 9.9107
" />
<path d="M52.9588 9.9107
L52.9588 9.8512
" />
<path d="M52.9588 9.8512
L52.9707 9.8274
" />
<path d="M52.9707 9.8274
L52.9826 9.8155
" />
<path d="M52.9826 9.8155
L53.0064 9.8036
" />
<path d="M53.0064 9.8036
L53.0660 9.8036
" />
<path d="M53.0660 9.8036
L53.0898 9.8155
" />
<path d="M53.0898 9.8155
L53.1017 9.8274
" />
<path d="M53.1017 9.8274
L53.1136 9.8512
" />
<path d="M53.1136 9.8512
L53.1136 9.9107
" />
<path d="M53.1136 9.9107
L53.1017 9.9345
" />
<path d="M53.1017 9.9345
L53.0898 9.9464
" />
</g></g>
<g style="fill:none; 
stroke:#000000; stroke-width:0.1500; stroke-opacity:1; 
stroke-linecap:round; stroke-linejoin:round;">
<text x="20.0000" y="19.9500"
textLength="7.9643" font-size="1.3333" lengthAdjust="spacingAndGlyphs"
text-anchor="middle" opacity="0" stroke-opacity="0">MAX31856</text>
<g class="stroked-text"><desc>MAX31856</desc>
<path d="M16.3810 19.9048
L16.3810 18.9048
" />
<path d="M16.3810 18.9048
L16.7143 19.6191
" />
<path d="M16.7143 19.6191
L17.0476 18.9048
" />
<path d="M17.0476 18.9048
L17.0476 19.9048
" />
<path d="M17.4762 19.6191
L17.9524 19.6191
" />
<path d="M17.3810 19.9048
L17.7143 18.9048
" />
<path d="M17.7143 18.9048
L18.0476 19.9048
" />
<path d="M18.2857 18.9048
L18.9524 19.9048
" />
<path d="M18.9524 18.9048
L18.2857 19.9048
" />
<path d="M19.2381 18.9048
L19.8571 18.9048
" />
<path d="M19.8571 18.9048
L19.5238 19.2858
" />
<path d="M19.5238 19.2858
L19.6667 19.2858
" />
<path d="M19.6667 19.2858
L19.7619 19.3334
" />
<path d="M19.7619 19.3334
L19.8095 19.3810
" />
<path d="M19.8095 19.3810
L19.8571 19.4762
" />
<path d="M19.8571 19.4762
L19.8571 19.7143
" />
<path d="M19.8571 19.7143
L19.8095 19.8096
" />
<path d="M19.8095 19.8096
L19.7619 19.8572
" />
<path d="M19.7619 19.8572
L19.6667 19.9048
" />
<path d="M19.6667 19.9048
L19.3810 19.9048
" />
<path d="M19.3810 19.9048
L19.2857 19.8572
" />
<path d="M19.2857 19.8572
L19.2381 19.8096
" />
<path d="M20.8095 19.9048
L20.2381 19.9048
" />
<path d="M20.5238 19.9048
L20.5238 18.9048
" />
<path d="M20.5238 18.9048
L20.4286 19.0477
" />
<path d="M20.4286 19.0477
L20.3333 19.1429
" />
<path d="M20.3333 19.1429
L20.2381 19.1905
" />
<path d="M21.3810 19.3334
L21.2857 19.2858
" />
<path d="M21.2857 19.2858
L21.2381 19.2382
" />
<path d="M21.2381 19.2382
L21.1905 19.1429
" />
<path d="M21.1905 19.1429
L21.1905 19.0953
" />
<path d="M21.1905 19.0953
L21.2381 19.0001
" />
<path d="M21.2381 19.0001
L21.2857 18.9524
" />
<path d="M21.2857 18.9524
L21.3810 18.9048
" />
<path d="M21.3810 18.9048
L21.5714 18.9048
" />
<path d="M21.5714 18.9048
L21.6667 18.9524
" />
<path d="M21.6667 18.9524
L21.7143 19.0001
" />
<path d="M21.7143 19.0001
L21.7619 19.0953
" />
<path d="M21.7619 19.0953
L21.7619 19.1429
" />
<path d="M21.7619 19.1429
L21.7143 19.2382
" />
<path d="M21.7143 19.2382
L21.6667 19.2858
" />
<path d="M21.6667 19.2858
L21.5714 19.3334
" />
<path d="M21.5714 19.3334
L21.3810 19.3334
" />
<path d="M21.3810 19.3334
L21.2857 19.3810
" />
<path d="M21.2857 19.3810
L21.2381 19.4286
" />
<path d="M21.2381 19.4286
L21.1905 19.5239
" />
<path d="M21.1905 19.5239
L21.1905 19.7143
" />
<path d="M21.1905 19.7143
L21.2381 19.8096
" />
<path d="M21.2381 19.8096
L21.2857 19.8572
" />
<path d="M21.2857 19.8572
L21.3810 19.9048
" />
<path d="M21.3810 19.9048
L21.5714 19.9048
" />
<path d="M21.5714 19.9048
L21.6667 19.8572
" />
<path d="M21.6667 19.8572
L21.7143 19.8096
" />
<path d="M21.7143 19.8096
L21.7619 19.7143
" />
<path d="M21.7619 19.7143
L21.7619 19.5239
" />
<path d="M21.7619 19.5239
L21.7143 19.4286
" />
<path d="M21.7143 19.4286
L21.6667 19.3810
" />
<path d="M21.6667 19.3810
L21.5714 19.3334
" />
<path d="M22.6667 18.9048
L22.1905 18.9048
" />
<path d="M22.1905 18.9048
L22.1429 19.3810
" />
<path d="M22.1429 19.3810
L22.1905 19.3334
" />
<path d="M22.1905 19.3334
L22.2857 19.2858
" />
<path d="M22.2857 19.2858
L22.5238 19.2858
" />
<path d="M22.5238 19.2858
L22.6190 19.3334
" />
<path d="M22.6190 19.3334
L22.6667 19.3810
" />
<path d="M22.6667 19.3810
L22.7143 19.4762
" />
<path d="M22.7143 19.4762
L22.7143 19.7143
" />
<path d="M22.7143 19.7143
L22.6667 19.8096
" />
<path d="M22.6667 19.8096
L22.6190 19.8572
" />
<path d="M22.6190 19.8572
L22.5238 19.9048
" />
<path d="M22.5238 19.9048
L22.2857 19.9048
" />
<path d="M22.2857 19.9048
L22.1905 19.8572
" />
<path d="M22.1905 19.8572
L22.1429 19.8096
" />
<path d="M23.5714 18.9048
L23.3810 18.9048
" />
<path d="M23.3810 18.9048
L23.2857 18.9524
" />
<path d="M23.2857 18.9524
L23.2381 19.0001
" />
<path d="M23.2381 19.0001
L23.1429 19.1429
" />
<path d="M23.1429 19.1429
L23.0952 19.3334
" />
<path d="M23.0952 19.3334
L23.0952 19.7143
" />
<path d="M23.0952 19.7143
L23.1429 19.8096
" />
<path d="M23.1429 19.8096
L23.1905 19.8572
" />
<path d="M23.1905 19.8572
L23.2857 19.9048
" />
<path d="M23.2857 19.9048
L23.4762 19.9048
" />
<path d="M23.4762 19.9048
L23.5714 19.8572
" />
<path d="M23.5714 19.8572
L23.6190 19.8096
" />
<path d="M23.6190 19.8096
L23.6667 19.7143
" />
<path d="M23.6667 19.7143
L23.6667 19.4762
" />
<path d="M23.6667 19.4762
L23.6190 19.3810
" />
<path d="M23.6190 19.3810
L23.5714 19.3334
" />
<path d="M23.5714 19.3334
L23.4762 19.2858
" />
<path d="M23.4762 19.2858
L23.2857 19.2858
" />
<path d="M23.2857 19.2858
L23.1905 19.3334
" />
<path d="M23.1905 19.3334
L23.1429 19.3810
" />
<path d="M23.1429 19.3810
L23.0952 19.4762
" />
</g><text x="20.0000" y="16.5000"
textLength="2.2500" font-size="1.3333" lengthAdjust="spacingAndGlyphs"
text-anchor="middle" opacity="0" stroke-opacity="0">U2</text>
<g class="stroked-text"><desc>U2</desc>
<path d="M19.2381 15.4548
L19.2381 16.2643
" />
<path d="M19.2381 16.2643
L19.2857 16.3596
" />
<path d="M19.2857 16.3596
L19.3333 16.4072
" />
<path d="M19.3333 16.4072
L19.4286 16.4548
" />
<path d="M19.4286 16.4548
L19.6190 16.4548
" />
<path d="M19.6190 16.4548
L19.7143 16.4072
" />
<path d="M19.7143 16.4072
L19.7619 16.3596
" />
<path d="M19.7619 16.3596
L19.8095 16.2643
" />
<path d="M19.8095 16.2643
L19.8095 15.4548
" />
<path d="M20.2381 15.5501
L20.2857 15.5024
" />
<path d="M20.2857 15.5024
L20.3810 15.4548
" />
<path d="M20.3810 15.4548
L20.6190 15.4548
" />
<path d="M20.6190 15.4548
L20.7143 15.5024
" />
<path d="M20.7143 15.5024
L20.7619 15.5501
" />
<path d="M20.7619 15.5501
L20.8095 15.6453
" />
<path d="M20.8095 15.6453
L20.8095 15.7405
" />
<path d="M20.8095 15.7405
L20.7619 15.8834
" />
<path d="M20.7619 15.8834
L20.1905 16.4548
" />
<path d="M20.1905 16.4548
L20.8095 16.4548
" />
</g><text x="59.0000" y="27.4200"
textLength="2.9643" font-size="1.3333" lengthAdjust="spacingAndGlyphs"
text-anchor="middle" opacity="0" stroke-opacity="0">TC2</text>
<g class="stroked-text"><desc>TC2</desc>
<path d="M57.7381 26.3748
L58.3095 26.3748
" />
<path d="M58.0238 27.3748
L58.0238 26.3748
" />
<path d="M59.2143 27.2796
L59.1667 27.3272
" />
<path d="M59.1667 27.3272
L59.0238 27.3748
" />
<path d="M59.0238 27.3748
L58.9286 27.3748
" />
<path d="M58.9286 27.3748
L58.7857 27.3272
" />
<path d="M58.7857 27.3272
L58.6905 27.2320
" />
<path d="M58.6905 27.2320
L58.6429 27.1367
" />
<path d="M58.6429 27.1367
L58.5952 26.9462
" />
<path d="M58.5952 26.9462
L58.5952 26.8034
" />
<path d="M58.5952 26.8034
L58.6429 26.6129
" />
<path d="M58.6429 26.6129
L58.6905 26.5177
" />
<path d="M58.6905 26.5177
L58.7857 26.4224
" />
<path d="M58.7857 26.4224
L58.9286 26.3748
" />
<path d="M58.9286 26.3748
L59.0238 26.3748
" />
<path d="M59.0238 26.3748
L59.1667 26.4224
" />
<path d="M59.1667 26.4224
L59.2143 26.4701
" />
<path d="M59.5952 26.4701
L59.6429 26.4224
" />
<path d="M59.6429 26.4224
L59.7381 26.3748
" />
<path d="M59.7381 26.3748
L59.9762 26.3748
" />
<path d="M59.9762 26.3748
L60.0714 26.4224
" />
<path d="M60.0714 26.4224
L60.1190 26.4701
" />
<path d="M60.1190 26.4701
L60.1667 26.5653
" />
<path d="M60.1667 26.5653
L60.1667 26.6605
" />
<path d="M60.1667 26.6605
L60.1190 26.8034
" />
<path d="M60.1190 26.8034
L59.5476 27.3748
" />
<path d="M59.5476 27.3748
L60.1667 27.3748
" />
</g><g transform="rotate(-90.000000 59.0000 23.2700)">
<text x="59.0000" y="23.7700"
textLength="1.9643" font-size="1.3333" lengthAdjust="spacingAndGlyphs"
text-anchor="middle" opacity="0" stroke-opacity="0">J4</text>
</g>
<g class="stroked-text"><desc>J4</desc>
<path d="M58.4548 23.6033
L59.1691 23.6033
" />
<path d="M59.1691 23.6033
L59.3120 23.6510
" />
<path d="M59.3120 23.6510
L59.4072 23.7462
" />
<path d="M59.4072 23.7462
L59.4548 23.8890
" />
<path d="M59.4548 23.8890
L59.4548 23.9843
" />
<path d="M58.7882 22.6986
L59.4548 22.6986
" />
<path d="M58.4072 22.9367
L59.1215 23.1748
" />
<path d="M59.1215 23.1748
L59.1215 22.5557
" />
</g><g transform="rotate(-90.000000 42.1700 16.0000)">
<text x="42.1700" y="16.5000"
textLength="3.9167" font-size="1.3333" lengthAdjust="spacingAndGlyphs"
text-anchor="middle" opacity="0" stroke-opacity="0">100k</text>
</g>
<g class="stroked-text"><desc>100k</desc>
<path d="M42.6248 17.0714
L42.6248 17.6429
" />
<path d="M42.6248 17.3571
L41.6248 17.3571
" />
<path d="M41.6248 17.3571
L41.7677 17.4524
" />
<path d="M41.7677 17.4524
L41.8629 17.5476
" />
<path d="M41.8629 17.5476
L41.9105 17.6429
" />
<path d="M41.6248 16.4524
L41.6248 16.3571
" />
<path d="M41.6248 16.3571
L41.6724 16.2619
" />
<path d="M41.6724 16.2619
L41.7201 16.2143
" />
<path d="M41.7201 16.2143
L41.8153 16.1667
" />
<path d="M41.8153 16.1667
L42.0058 16.1190
" />
<path d="M42.0058 16.1190
L42.2439 16.1190
" />
<path d="M42.2439 16.1190
L42.4343 16.1667
" />
<path d="M42.4343 16.1667
L42.5296 16.2143
" />
<path d="M42.5296 16.2143
L42.5772 16.2619
" />
<path d="M42.5772 16.2619
L42.6248 16.3571
" />
<path d="M42.6248 16.3571
L42.6248 16.4524
" />
<path d="M42.6248 16.4524
L42.5772 16.5476
" />
<path d="M42.5772 16.5476
L42.5296 16.5952
" />
<path d="M42.5296 16.5952
L42.4343 16.6429
" />
<path d="M42.4343 16.6429
L42.2439 16.6905
" />
<path d="M42.2439 16.6905
L42.0058 16.6905
" />
<path d="M42.0058 16.6905
L41.8153 16.6429
" />
<path d="M41.8153 16.6429
L41.7201 16.5952
" />
<path d="M41.7201 16.5952
L41.6724 16.5476
" />
<path d="M41.6724 16.5476
L41.6248 16.4524
" />
<path d="M41.6248 15.5000
L41.6248 15.4048
" />
<path d="M41.6248 15.4048
L41.6724 15.3095
" />
<path d="M41.6724 15.3095
L41.7201 15.2619
" />
<path d="M41.7201 15.2619
L41.8153 15.2143
" />
<path d="M41.8153 15.2143
L42.0058 15.1667
" />
<path d="M42.0058 15.1667
L42.2439 15.1667
" />
<path d="M42.2439 15.1667
L42.4343 15.2143
" />
<path d="M42.4343 15.2143
L42.5296 15.2619
" />
<path d="M42.5296 15.2619
L42.5772 15.3095
" />
<path d="M42.5772 15.3095
L42.6248 15.4048
" />
<path d="M42.6248 15.4048
L42.6248 15.5000
" />
<path d="M42.6248 15.5000
L42.5772 15.5952
" />
<path d="M42.5772 15.5952
L42.5296 15.6429
" />
<path d="M42.5296 15.6429
L42.4343 15.6905
" />
<path d="M42.4343 15.6905
L42.2439 15.7381
" />
<path d="M42.2439 15.7381
L42.0058 15.7381
" />
<path d="M42.0058 15.7381
L41.8153 15.6905
" />
<path d="M41.8153 15.6905
L41.7201 15.6429
" />
<path d="M41.7201 15.6429
L41.6724 15.5952
" />
<path d="M41.6724 15.5952
L41.6248 15.5000
" />
<path d="M42.6248 14.7381
L41.6248 14.7381
" />
<path d="M42.2439 14.6429
L42.6248 14.3571
" />
<path d="M41.9582 14.3571
L42.3391 14.7381
" />
</g></g>
<g style="fill:none; 
stroke:#000000; stroke-width:0.0400; stroke-opacity:1; 
stroke-linecap:round; stroke-linejoin:round;">
<g transform="rotate(-90.000000 41.0000 16.0000)">
<text x="41.0000" y="16.1300"
textLength="0.5756" font-size="0.3467" lengthAdjust="spacingAndGlyphs"
text-anchor="middle" opacity="0" stroke-opacity="0">R4</text>
</g>
<g class="stroked-text"><desc>R4</desc>
<path d="M41.1182 16.0433
L40.9944 16.1300
" />
<path d="M41.1182 16.1919
L40.8582 16.1919
" />
<path d="M40.8582 16.1919
L40.8582 16.0929
" />
<path d="M40.8582 16.0929
L40.8706 16.0681
" />
<path d="M40.8706 16.0681
L40.8830 16.0557
" />
<path d="M40.8830 16.0557
L40.9077 16.0433
" />
<path d="M40.9077 16.0433
L40.9449 16.0433
" />
<path d="M40.9449 16.0433
L40.9696 16.0557
" />
<path d="M40.9696 16.0557
L40.9820 16.0681
" />
<path d="M40.9820 16.0681
L40.9944 16.0929
" />
<path d="M40.9944 16.0929
L40.9944 16.1919
" />
<path d="M40.9449 15.8205
L41.1182 15.8205
" />
<path d="M40.8458 15.8824
L41.0315 15.9443
" />
<path d="M41.0315 15.9443
L41.0315 15.7833
" />
</g></g>
<g style="fill:none; 
stroke:#000000; stroke-width:0.1500; stroke-opacity:1; 
stroke-linecap:round; stroke-linejoin:round;">
<g transform="rotate(-90.000000 54.1600 28.0000)">
<text x="54.1600" y="28.5000"
textLength="11.9167" font-size="1.3333" lengthAdjust="spacingAndGlyphs"
text-anchor="middle" opacity="0" stroke-opacity="0">ST7789_Display</text>
</g>
<g class="stroked-text"><desc>ST7789_Display</desc>
<path d="M54.5672 33.6429
L54.6148 33.5000
" />
<path d="M54.6148 33.5000
L54.6148 33.2619
" />
<path d="M54.6148 33.2619
L54.5672 33.1667
" />
<path d="M54.5672 33.1667
L54.5196 33.1190
" />
<path d="M54.5196 33.1190
L54.4243 33.0714
" />
<path d="M54.4243 33.0714
L54.3291 33.0714
" />
<path d="M54.3291 33.0714
L54.2339 33.1190
" />
<path d="M54.2339 33.1190
L54.1862 33.1667
" />
<path d="M54.1862 33.1667
L54.1386 33.2619
" />
<path d="M54.1386 33.2619
L54.0910 33.4524
" />
<path d="M54.0910 33.4524
L54.0434 33.5476
" />
<path d="M54.0434 33.5476
L53.9958 33.5952
" />
<path d="M53.9958 33.5952
L53.9005 33.6429
" />
<path d="M53.9005 33.6429
L53.8053 33.6429
" />
<path d="M53.8053 33.6429
L53.7101 33.5952
" />
<path d="M53.7101 33.5952
L53.6624 33.5476
" />
<path d="M53.6624 33.5476
L53.6148 33.4524
" />
<path d="M53.6148 33.4524
L53.6148 33.2143
" />
<path d="M53.6148 33.2143
L53.6624 33.0714
" />
<path d="M53.6148 32.7857
L53.6148 32.2143
" />
<path d="M54.6148 32.5000
L53.6148 32.5000
" />
<path d="M53.6148 31.9762
L53.6148 31.3095
" />
<path d="M53.6148 31.3095
L54.6148 31.7381
" />
<path d="M53.6148 31.0238
L53.6148 30.3571
" />
<path d="M53.6148 30.3571
L54.6148 30.7857
" />
<path d="M54.0434 29.8333
L53.9958 29.9286
" />
<path d="M53.9958 29.9286
L53.9482 29.9762
" />
<path d="M53.9482 29.9762
L53.8529 30.0238
" />
<path d="M53.8529 30.0238
L53.8053 30.0238
" />
<path d="M53.8053 30.0238
L53.7101 29.9762
" />
<path d="M53.7101 29.9762
L53.6624 29.9286
" />
<path d="M53.6624 29.9286
L53.6148 29.8333
" />
<path d="M53.6148 29.8333
L53.6148 29.6429
" />
<path d="M53.6148 29.6429
L53.6624 29.5476
" />
<path d="M53.6624 29.5476
L53.7101 29.5000
" />
<path d="M53.7101 29.5000
L53.8053 29.4524
" />
<path d="M53.8053 29.4524
L53.8529 29.4524
" />
<path d="M53.8529 29.4524
L53.9482 29.5000
" />
<path d="M53.9482 29.5000
L53.9958 29.5476
" />
<path d="M53.9958 29.5476
L54.0434 29.6429
" />
<path d="M54.0434 29.6429
L54.0434 29.8333
" />
<path d="M54.0434 29.8333
L54.0910 29.9286
" />
<path d="M54.0910 29.9286
L54.1386 29.9762
" />
<path d="M54.1386 29.9762
L54.2339 30.0238
" />
<path d="M54.2339 30.0238
L54.4243 30.0238
" />
<path d="M54.4243 30.0238
L54.5196 29.9762
" />
<path d="M54.5196 29.9762
L54.5672 29.9286
" />
<path d="M54.5672 29.9286
L54.6148 29.8333
" />
<path d="M54.6148 29.8333
L54.6148 29.6429
" />
<path d="M54.6148 29.6429
L54.5672 29.5476
" />
<path d="M54.5672 29.5476
L54.5196 29.5000
" />
<path d="M54.5196 29.5000
L54.4243 29.4524
" />
<path d="M54.4243 29.4524
L54.2339 29.4524
" />
<path d="M54.2339 29.4524
L54.1386 29.5000
" />
<path d="M54.1386 29.5000
L54.0910 29.5476
" />
<path d="M54.0910 29.5476
L54.0434 29.6429
" />
<path d="M54.6148 28.9762
L54.6148 28.7857
" />
<path d="M54.6148 28.7857
L54.5672 28.6905
" />
<path d="M54.5672 28.6905
L54.5196 28.6429
" />
<path d="M54.5196 28.6429
L54.3767 28.5476
" />
<path d="M54.3767 28.5476
L54.1862 28.5000
" />
<path d="M54.1862 28.5000
L53.8053 28.5000
" />
<path d="M53.8053 28.5000
L53.7101 28.5476
" />
<path d="M53.7101 28.5476
L53.6624 28.5952
" />
<path d="M53.6624 28.5952
L53.6148 28.6905
" />
<path d="M53.6148 28.6905
L53.6148 28.8810
" />
<path d="M53.6148 28.8810
L53.6624 28.9762
" />
<path d="M53.6624 28.9762
L53.7101 29.0238
" />
<path d="M53.7101 29.0238
L53.8053 29.0714
" />
<path d="M53.8053 29.0714
L54.0434 29.0714
" />
<path d="M54.0434 29.0714
L54.1386 29.0238
" />
<path d="M54.1386 29.0238
L54.1862 28.9762
" />
<path d="M54.1862 28.9762
L54.2339 28.8810
" />
<path d="M54.2339 28.8810
L54.2339 28.6905
" />
<path d="M54.2339 28.6905
L54.1862 28.5952
" />
<path d="M54.1862 28.5952
L54.1386 28.5476
" />
<path d="M54.1386 28.5476
L54.0434 28.5000
" />
<path d="M54.7101 28.3095
L54.7101 27.5476
" />
<path d="M54.6148 27.3095
L53.6148 27.3095
" />
<path d="M53.6148 27.3095
L53.6148 27.0714
" />
<path d="M53.6148 27.0714
L53.6624 26.9286
" />
<path d="M53.6624 26.9286
L53.7577 26.8333
" />
<path d="M53.7577 26.8333
L53.8529 26.7857
" />
<path d="M53.8529 26.7857
L54.0434 26.7381
" />
<path d="M54.0434 26.7381
L54.1862 26.7381
" />
<path d="M54.1862 26.7381
L54.3767 26.7857
" />
<path d="M54.3767 26.7857
L54.4720 26.8333
" />
<path d="M54.4720 26.8333
L54.5672 26.9286
" />
<path d="M54.5672 26.9286
L54.6148 27.0714
" />
<path d="M54.6148 27.0714
L54.6148 27.3095
" />
<path d="M54.6148 26.3095
L53.9482 26.3095
" />
<path d="M53.6148 26.3095
L53.6624 26.3571
" />
<path d="M53.6624 26.3571
L53.7101 26.3095
" />
<path d="M53.7101 26.3095
L53.6624 26.2619
" />
<path d="M53.6624 26.2619
L53.6148 26.3095
" />
<path d="M53.6148 26.3095
L53.7101 26.3095
" />
<path d="M54.5672 25.8810
L54.6148 25.7857
" />
<path d="M54.6148 25.7857
L54.6148 25.5952
" />
<path d="M54.6148 25.5952
L54.5672 25.5000
" />
<path d="M54.5672 25.5000
L54.4720 25.4524
" />
<path d="M54.4720 25.4524
L54.4243 25.4524
" />
<path d="M54.4243 25.4524
L54.3291 25.5000
" />
<path d="M54.3291 25.5000
L54.2815 25.5952
" />
<path d="M54.2815 25.5952
L54.2815 25.7381
" />
<path d="M54.2815 25.7381
L54.2339 25.8333
" />
<path d="M54.2339 25.8333
L54.1386 25.8810
" />
<path d="M54.1386 25.8810
L54.0910 25.8810
" />
<path d="M54.0910 25.8810
L53.9958 25.8333
" />
<path d="M53.9958 25.8333
L53.9482 25.7381
" />
<path d="M53.9482 25.7381
L53.9482 25.5952
" />
<path d="M53.9482 25.5952
L53.9958 25.5000
" />
<path d="M53.9482 25.0238
L54.9482 25.0238
" />
<path d="M53.9958 25.0238
L53.9482 24.9286
" />
<path d="M53.9482 24.9286
L53.9482 24.7381
" />
<path d="M53.9482 24.7381
L53.9958 24.6429
" />
<path d="M53.9958 24.6429
L54.0434 24.5952
" />
<path d="M54.0434 24.5952
L54.1386 24.5476
" />
<path d="M54.1386 24.5476
L54.4243 24.5476
" />
<path d="M54.4243 24.5476
L54.5196 24.5952
" />
<path d="M54.5196 24.5952
L54.5672 24.6429
" />
<path d="M54.5672 24.6429
L54.6148 24.7381
" />
<path d="M54.6148 24.7381
L54.6148 24.9286
" />
<path d="M54.6148 24.9286
L54.5672 25.0238
" />
<path d="M54.6148 23.9762
L54.5672 24.0714
" />
<path d="M54.5672 24.0714
L54.4720 24.1190
" />
<path d="M54.4720 24.1190
L53.6148 24.1190
" />
<path d="M54.6148 23.1667
L54.0910 23.1667
" />
<path d="M54.0910 23.1667
L53.9958 23.2143
" />
<path d="M53.9958 23.2143
L53.9482 23.3095
" />
<path d="M53.9482 23.3095
L53.9482 23.5000
" />
<path d="M53.9482 23.5000
L53.9958 23.5952
" />
<path d="M54.5672 23.1667
L54.6148 23.2619
" />
<path d="M54.6148 23.2619
L54.6148 23.5000
" />
<path d="M54.6148 23.5000
L54.5672 23.5952
" />
<path d="M54.5672 23.5952
L54.4720 23.6429
" />
<path d="M54.4720 23.6429
L54.3767 23.6429
" />
<path d="M54.3767 23.6429
L54.2815 23.5952
" />
<path d="M54.2815 23.5952
L54.2339 23.5000
" />
<path d="M54.2339 23.5000
L54.2339 23.2619
" />
<path d="M54.2339 23.2619
L54.1862 23.1667
" />
<path d="M53.9482 22.7857
L54.6148 22.5476
" />
<path d="M53.9482 22.3095
L54.6148 22.5476
" />
<path d="M54.6148 22.5476
L54.8529 22.6429
" />
<path d="M54.8529 22.6429
L54.9005 22.6905
" />
<path d="M54.9005 22.6905
L54.9482 22.7857
" />
</g><text x="42.8900" y="28.5000"
textLength="1.9643" font-size="1.3333" lengthAdjust="spacingAndGlyphs"
text-anchor="middle" opacity="0" stroke-opacity="0">J2</text>
<g class="stroked-text"><desc>J2</desc>
<path d="M42.5567 27.4548
L42.5567 28.1691
" />
<path d="M42.5567 28.1691
L42.5090 28.3120
" />
<path d="M42.5090 28.3120
L42.4138 28.4072
" />
<path d="M42.4138 28.4072
L42.2710 28.4548
" />
<path d="M42.2710 28.4548
L42.1757 28.4548
" />
<path d="M42.9852 27.5501
L43.0329 27.5024
" />
<path d="M43.0329 27.5024
L43.1281 27.4548
" />
<path d="M43.1281 27.4548
L43.3662 27.4548
" />
<path d="M43.3662 27.4548
L43.4614 27.5024
" />
<path d="M43.4614 27.5024
L43.5090 27.5501
" />
<path d="M43.5090 27.5501
L43.5567 27.6453
" />
<path d="M43.5567 27.6453
L43.5567 27.7405
" />
<path d="M43.5567 27.7405
L43.5090 27.8834
" />
<path d="M43.5090 27.8834
L42.9376 28.4548
" />
<path d="M42.9376 28.4548
L43.5567 28.4548
" />
</g><g transform="rotate(-90.000000 25.1600 10.0000)">
<text x="25.1600" y="10.5000"
textLength="4.0119" font-size="1.3333" lengthAdjust="spacingAndGlyphs"
text-anchor="middle" opacity="0" stroke-opacity="0">100n</text>
</g>
<g class="stroked-text"><desc>100n</desc>
<path d="M25.6148 11.1190
L25.6148 11.6905
" />
<path d="M25.6148 11.4048
L24.6148 11.4048
" />
<path d="M24.6148 11.4048
L24.7577 11.5000
" />
<path d="M24.7577 11.5000
L24.8529 11.5952
" />
<path d="M24.8529 11.5952
L24.9005 11.6905
" />
<path d="M24.6148 10.5000
L24.6148 10.4048
" />
<path d="M24.6148 10.4048
L24.6624 10.3095
" />
<path d="M24.6624 10.3095
L24.7101 10.2619
" />
<path d="M24.7101 10.2619
L24.8053 10.2143
" />
<path d="M24.8053 10.2143
L24.9958 10.1667
" />
<path d="M24.9958 10.1667
L25.2339 10.1667
" />
<path d="M25.2339 10.1667
L25.4243 10.2143
" />
<path d="M25.4243 10.2143
L25.5196 10.2619
" />
<path d="M25.5196 10.2619
L25.5672 10.3095
" />
<path d="M25.5672 10.3095
L25.6148 10.4048
" />
<path d="M25.6148 10.4048
L25.6148 10.5000
" />
<path d="M25.6148 10.5000
L25.5672 10.5952
" />
<path d="M25.5672 10.5952
L25.5196 10.6429
" />
<path d="M25.5196 10.6429
L25.4243 10.6905
" />
<path d="M25.4243 10.6905
L25.2339 10.7381
" />
<path d="M25.2339 10.7381
L24.9958 10.7381
" />
<path d="M24.9958 10.7381
L24.8053 10.6905
" />
<path d="M24.8053 10.6905
L24.7101 10.6429
" />
<path d="M24.7101 10.6429
L24.6624 10.5952
" />
<path d="M24.6624 10.5952
L24.6148 10.5000
" />
<path d="M24.6148 9.5476
L24.6148 9.4524
" />
<path d="M24.6148 9.4524
L24.6624 9.3571
" />
<path d="M24.6624 9.3571
L24.7101 9.3095
" />
<path d="M24.7101 9.3095
L24.8053 9.2619
" />
<path d="M24.8053 9.2619
L24.9958 9.2143
" />
<path d="M24.9958 9.2143
L25.2339 9.2143
" />
<path d="M25.2339 9.2143
L25.4243 9.2619
" />
<path d="M25.4243 9.2619
L25.5196 9.3095
" />
<path d="M25.5196 9.3095
L25.5672 9.3571
" />
<path d="M25.5672 9.3571
L25.6148 9.4524
" />
<path d="M25.6148 9.4524
L25.6148 9.5476
" />
<path d="M25.6148 9.5476
L25.5672 9.6429
" />
<path d="M25.5672 9.6429
L25.5196 9.6905
" />
<path d="M25.5196 9.6905
L25.4243 9.7381
" />
<path d="M25.4243 9.7381
L25.2339 9.7857
" />
<path d="M25.2339 9.7857
L24.9958 9.7857
" />
<path d="M24.9958 9.7857
L24.8053 9.7381
" />
<path d="M24.8053 9.7381
L24.7101 9.6905
" />
<path d="M24.7101 9.6905
L24.6624 9.6429
" />
<path d="M24.6624 9.6429
L24.6148 9.5476
" />
<path d="M24.9482 8.7857
L25.6148 8.7857
" />
<path d="M25.0434 8.7857
L24.9958 8.7381
" />
<path d="M24.9958 8.7381
L24.9482 8.6429
" />
<path d="M24.9482 8.6429
L24.9482 8.5000
" />
<path d="M24.9482 8.5000
L24.9958 8.4048
" />
<path d="M24.9958 8.4048
L25.0910 8.3571
" />
<path d="M25.0910 8.3571
L25.6148 8.3571
" />
</g></g>
<g style="fill:none; 
stroke:#000000; stroke-width:0.0400; stroke-opacity:1; 
stroke-linecap:round; stroke-linejoin:round;">
<g transform="rotate(-90.000000 24.0000 10.0000)">
<text x="24.0000" y="10.1250"
textLength="0.5581" font-size="0.3333" lengthAdjust="spacingAndGlyphs"
text-anchor="middle" opacity="0" stroke-opacity="0">C3</text>
</g>
<g class="stroked-text"><desc>C3</desc>
<path d="M24.0898 10.0417
L24.1017 10.0536
" />
<path d="M24.1017 10.0536
L24.1136 10.0893
" />
<path d="M24.1136 10.0893
L24.1136 10.1131
" />
<path d="M24.1136 10.1131
L24.1017 10.1488
" />
<path d="M24.1017 10.1488
L24.0779 10.1726
" />
<path d="M24.0779 10.1726
L24.0541 10.1845
" />
<path d="M24.0541 10.1845
L24.0064 10.1964
" />
<path d="M24.0064 10.1964
L23.9707 10.1964
" />
<path d="M23.9707 10.1964
L23.9231 10.1845
" />
<path d="M23.9231 10.1845
L23.8993 10.1726
" />
<path d="M23.8993 10.1726
L23.8755 10.1488
" />
<path d="M23.8755 10.1488
L23.8636 10.1131
" />
<path d="M23.8636 10.1131
L23.8636 10.0893
" />
<path d="M23.8636 10.0893
L23.8755 10.0536
" />
<path d="M23.8755 10.0536
L23.8874 10.0417
" />
<path d="M23.8636 9.9583
L23.8636 9.8036
" />
<path d="M23.8636 9.8036
L23.9588 9.8869
" />
<path d="M23.9588 9.8869
L23.9588 9.8512
" />
<path d="M23.9588 9.8512
L23.9707 9.8274
" />
<path d="M23.9707 9.8274
L23.9826 9.8155
" />
<path d="M23.9826 9.8155
L24.0064 9.8036
" />
<path d="M24.0064 9.8036
L24.0660 9.8036
" />
<path d="M24.0660 9.8036
L24.0898 9.8155
" />
<path d="M24.0898 9.8155
L24.1017 9.8274
" />
<path d="M24.1017 9.8274
L24.1136 9.8512
" />
<path d="M24.1136 9.8512
L24.1136 9.9226
" />
<path d="M24.1136 9.9226
L24.1017 9.9464
" />
<path d="M24.1017 9.9464
L24.0898 9.9583
" />
</g></g>
<g style="fill:none; 
stroke:#000000; stroke-width:0.1500; stroke-opacity:1; 
stroke-linecap:round; stroke-linejoin:round;">
<g transform="rotate(-90.000000 13.1700 16.0000)">
<text x="13.1700" y="16.5000"
textLength="3.9167" font-size="1.3333" lengthAdjust="spacingAndGlyphs"
text-anchor="middle" opacity="0" stroke-opacity="0">100k</text>
</g>
<g class="stroked-text"><desc>100k</desc>
<path d="M13.6248 17.0714
L13.6248 17.6429
" />
<path d="M13.6248 17.3571
L12.6248 17.3571
" />
<path d="M12.6248 17.3571
L12.7677 17.4524
" />
<path d="M12.7677 17.4524
L12.8629 17.5476
" />
<path d="M12.8629 17.5476
L12.9105 17.6429
" />
<path d="M12.6248 16.4524
L12.6248 16.3571
" />
<path d="M12.6248 16.3571
L12.6724 16.2619
" />
<path d="M12.6724 16.2619
L12.7201 16.2143
" />
<path d="M12.7201 16.2143
L12.8153 16.1667
" />
<path d="M12.8153 16.1667
L13.0058 16.1190
" />
<path d="M13.0058 16.1190
L13.2439 16.1190
" />
<path d="M13.2439 16.1190
L13.4343 16.1667
" />
<path d="M13.4343 16.1667
L13.5296 16.2143
" />
<path d="M13.5296 16.2143
L13.5772 16.2619
" />
<path d="M13.5772 16.2619
L13.6248 16.3571
" />
<path d="M13.6248 16.3571
L13.6248 16.4524
" />
<path d="M13.6248 16.4524
L13.5772 16.5476
" />
<path d="M13.5772 16.5476
L13.5296 16.5952
" />
<path d="M13.5296 16.5952
L13.4343 16.6429
" />
<path d="M13.4343 16.6429
L13.2439 16.6905
" />
<path d="M13.2439 16.6905
L13.0058 16.6905
" />
<path d="M13.0058 16.6905
L12.8153 16.6429
" />
<path d="M12.8153 16.6429
L12.7201 16.5952
" />
<path d="M12.7201 16.5952
L12.6724 16.5476
" />
<path d="M12.6724 16.5476
L12.6248 16.4524
" />
<path d="M12.6248 15.5000
L12.6248 15.4048
" />
<path d="M12.6248 15.4048
L12.6724 15.3095
" />
<path d="M12.6724 15.3095
L12.7201 15.2619
" />
<path d="M12.7201 15.2619
L12.8153 15.2143
" />
<path d="M12.8153 15.2143
L13.0058 15.1667
" />
<path d="M13.0058 15.1667
L13.2439 15.1667
" />
<path d="M13.2439 15.1667
L13.4343 15.2143
" />
<path d="M13.4343 15.2143
L13.5296 15.2619
" />
<path d="M13.5296 15.2619
L13.5772 15.3095
" />
<path d="M13.5772 15.3095
L13.6248 15.4048
" />
<path d="M13.6248 15.4048
L13.6248 15.5000
" />
<path d="M13.6248 15.5000
L13.5772 15.5952
" />
<path d="M13.5772 15.5952
L13.5296 15.6429
" />
<path d="M13.5296 15.6429
L13.4343 15.6905
" />
<path d="M13.4343 15.6905
L13.2439 15.7381
" />
<path d="M13.2439 15.7381
L13.0058 15.7381
" />
<path d="M13.0058 15.7381
L12.8153 15.6905
" />
<path d="M12.8153 15.6905
L12.7201 15.6429
" />
<path d="M12.7201 15.6429
L12.6724 15.5952
" />
<path d="M12.6724 15.5952
L12.6248 15.5000
" />
<path d="M13.6248 14.7381
L12.6248 14.7381
" />
<path d="M13.2439 14.6429
L13.6248 14.3571
" />
<path d="M12.9582 14.3571
L13.3391 14.7381
" />
</g></g>
<g style="fill:none; 
stroke:#000000; stroke-width:0.0400; stroke-opacity:1; 
stroke-linecap:round; stroke-linejoin:round;">
<g transform="rotate(-90.000000 12.0000 16.0000)">
<text x="12.0000" y="16.1300"
textLength="0.5756" font-size="0.3467" lengthAdjust="spacingAndGlyphs"
text-anchor="middle" opacity="0" stroke-opacity="0">R3</text>
</g>
<g class="stroked-text"><desc>R3</desc>
<path d="M12.1182 16.0433
L11.9944 16.1300
" />
<path d="M12.1182 16.1919
L11.8582 16.1919
" />
<path d="M11.8582 16.1919
L11.8582 16.0929
" />
<path d="M11.8582 16.0929
L11.8706 16.0681
" />
<path d="M11.8706 16.0681
L11.8830 16.0557
" />
<path d="M11.8830 16.0557
L11.9077 16.0433
" />
<path d="M11.9077 16.0433
L11.9449 16.0433
" />
<path d="M11.9449 16.0433
L11.9696 16.0557
" />
<path d="M11.9696 16.0557
L11.9820 16.0681
" />
<path d="M11.9820 16.0681
L11.9944 16.0929
" />
<path d="M11.9944 16.0929
L11.9944 16.1919
" />
<path d="M11.8582 15.9567
L11.8582 15.7957
" />
<path d="M11.8582 15.7957
L11.9572 15.8824
" />
<path d="M11.9572 15.8824
L11.9572 15.8452
" />
<path d="M11.9572 15.8452
L11.9696 15.8205
" />
<path d="M11.9696 15.8205
L11.9820 15.8081
" />
<path d="M11.9820 15.8081
L12.0068 15.7957
" />
<path d="M12.0068 15.7957
L12.0687 15.7957
" />
<path d="M12.0687 15.7957
L12.0934 15.8081
" />
<path d="M12.0934 15.8081
L12.1058 15.8205
" />
<path d="M12.1058 15.8205
L12.1182 15.8452
" />
<path d="M12.1182 15.8452
L12.1182 15.9195
" />
<path d="M12.1182 15.9195
L12.1058 15.9443
" />
<path d="M12.1058 15.9443
L12.0934 15.9567
" />
</g></g>
<g style="fill:none; 
stroke:#000000; stroke-width:0.1500; stroke-opacity:1; 
stroke-linecap:round; stroke-linejoin:round;">
<text x="8.0000" y="27.4200"
textLength="2.9643" font-size="1.3333" lengthAdjust="spacingAndGlyphs"
text-anchor="middle" opacity="0" stroke-opacity="0">TC1</text>
<g class="stroked-text"><desc>TC1</desc>
<path d="M6.7381 26.3748
L7.3095 26.3748
" />
<path d="M7.0238 27.3748
L7.0238 26.3748
" />
<path d="M8.2143 27.2796
L8.1667 27.3272
" />
<path d="M8.1667 27.3272
L8.0238 27.3748
" />
<path d="M8.0238 27.3748
L7.9286 27.3748
" />
<path d="M7.9286 27.3748
L7.7857 27.3272
" />
<path d="M7.7857 27.3272
L7.6905 27.2320
" />
<path d="M7.6905 27.2320
L7.6429 27.1367
" />
<path d="M7.6429 27.1367
L7.5952 26.9462
" />
<path d="M7.5952 26.9462
L7.5952 26.8034
" />
<path d="M7.5952 26.8034
L7.6429 26.6129
" />
<path d="M7.6429 26.6129
L7.6905 26.5177
" />
<path d="M7.6905 26.5177
L7.7857 26.4224
" />
<path d="M7.7857 26.4224
L7.9286 26.3748
" />
<path d="M7.9286 26.3748
L8.0238 26.3748
" />
<path d="M8.0238 26.3748
L8.1667 26.4224
" />
<path d="M8.1667 26.4224
L8.2143 26.4701
" />
<path d="M9.1667 27.3748
L8.5952 27.3748
" />
<path d="M8.8810 27.3748
L8.8810 26.3748
" />
<path d="M8.8810 26.3748
L8.7857 26.5177
" />
<path d="M8.7857 26.5177
L8.6905 26.6129
" />
<path d="M8.6905 26.6129
L8.5952 26.6605
" />
</g><g transform="rotate(-90.000000 8.0000 23.2700)">
<text x="8.0000" y="23.7700"
textLength="1.9643" font-size="1.3333" lengthAdjust="spacingAndGlyphs"
text-anchor="middle" opacity="0" stroke-opacity="0">J3</text>
</g>
<g class="stroked-text"><desc>J3</desc>
<path d="M7.4548 23.6033
L8.1691 23.6033
" />
<path d="M8.1691 23.6033
L8.3120 23.6510
" />
<path d="M8.3120 23.6510
L8.4072 23.7462
" />
<path d="M8.4072 23.7462
L8.4548 23.8890
" />
<path d="M8.4548 23.8890
L8.4548 23.9843
" />
<path d="M7.4548 23.2224
L7.4548 22.6033
" />
<path d="M7.4548 22.6033
L7.8358 22.9367
" />
<path d="M7.8358 22.9367
L7.8358 22.7938
" />
<path d="M7.8358 22.7938
L7.8834 22.6986
" />
<path d="M7.8834 22.6986
L7.9310 22.6510
" />
<path d="M7.9310 22.6510
L8.0262 22.6033
" />
<path d="M8.0262 22.6033
L8.2643 22.6033
" />
<path d="M8.2643 22.6033
L8.3596 22.6510
" />
<path d="M8.3596 22.6510
L8.4072 22.6986
" />
<path d="M8.4072 22.6986
L8.4548 22.7938
" />
<path d="M8.4548 22.7938
L8.4548 23.0795
" />
<path d="M8.4548 23.0795
L8.4072 23.1748
" />
<path d="M8.4072 23.1748
L8.3596 23.2224
" />
</g><text x="49.0000" y="19.9500"
textLength="7.9643" font-size="1.3333" lengthAdjust="spacingAndGlyphs"
text-anchor="middle" opacity="0" stroke-opacity="0">MAX31856</text>
<g class="stroked-text"><desc>MAX31856</desc>
<path d="M45.3810 19.9048
L45.3810 18.9048
" />
<path d="M45.3810 18.9048
L45.7143 19.6191
" />
<path d="M45.7143 19.6191
L46.0476 18.9048
" />
<path d="M46.0476 18.9048
L46.0476 19.9048
" />
<path d="M46.4762 19.6191
L46.9524 19.6191
" />
<path d="M46.3810 19.9048
L46.7143 18.9048
" />
<path d="M46.7143 18.9048
L47.0476 19.9048
" />
<path d="M47.2857 18.9048
L47.9524 19.9048
" />
<path d="M47.9524 18.9048
L47.2857 19.9048
" />
<path d="M48.2381 18.9048
L48.8571 18.9048
" />
<path d="M48.8571 18.9048
L48.5238 19.2858
" />
<path d="M48.5238 19.2858
L48.6667 19.2858
" />
<path d="M48.6667 19.2858
L48.7619 19.3334
" />
<path d="M48.7619 19.3334
L48.8095 19.3810
" />
<path d="M48.8095 19.3810
L48.8571 19.4762
" />
<path d="M48.8571 19.4762
L48.8571 19.7143
" />
<path d="M48.8571 19.7143
L48.8095 19.8096
" />
<path d="M48.8095 19.8096
L48.7619 19.8572
" />
<path d="M48.7619 19.8572
L48.6667 19.9048
" />
<path d="M48.6667 19.9048
L48.3810 19.9048
" />
<path d="M48.3810 19.9048
L48.2857 19.8572
" />
<path d="M48.2857 19.8572
L48.2381 19.8096
" />
<path d="M49.8095 19.9048
L49.2381 19.9048
" />
<path d="M49.5238 19.9048
L49.5238 18.9048
" />
<path d="M49.5238 18.9048
L49.4286 19.0477
" />
<path d="M49.4286 19.0477
L49.3333 19.1429
" />
<path d="M49.3333 19.1429
L49.2381 19.1905
" />
<path d="M50.3810 19.3334
L50.2857 19.2858
" />
<path d="M50.2857 19.2858
L50.2381 19.2382
" />
<path d="M50.2381 19.2382
L50.1905 19.1429
" />
<path d="M50.1905 19.1429
L50.1905 19.0953
" />
<path d="M50.1905 19.0953
L50.2381 19.0001
" />
<path d="M50.2381 19.0001
L50.2857 18.9524
" />
<path d="M50.2857 18.9524
L50.3810 18.9048
" />
<path d="M50.3810 18.9048
L50.5714 18.9048
" />
<path d="M50.5714 18.9048
L50.6667 18.9524
" />
<path d="M50.6667 18.9524
L50.7143 19.0001
" />
<path d="M50.7143 19.0001
L50.7619 19.0953
" />
<path d="M50.7619 19.0953
L50.7619 19.1429
" />
<path d="M50.7619 19.1429
L50.7143 19.2382
" />
<path d="M50.7143 19.2382
L50.6667 19.2858
" />
<path d="M50.6667 19.2858
L50.5714 19.3334
" />
<path d="M50.5714 19.3334
L50.3810 19.3334
" />
<path d="M50.3810 19.3334
L50.2857 19.3810
" />
<path d="M50.2857 19.3810
L50.2381 19.4286
" />
<path d="M50.2381 19.4286
L50.1905 19.5239
" />
<path d="M50.1905 19.5239
L50.1905 19.7143
" />
<path d="M50.1905 19.7143
L50.2381 19.8096
" />
<path d="M50.2381 19.8096
L50.2857 19.8572
" />
<path d="M50.2857 19.8572
L50.3810 19.9048
" />
<path d="M50.3810 19.9048
L50.5714 19.9048
" />
<path d="M50.5714 19.9048
L50.6667 19.8572
" />
<path d="M50.6667 19.8572
L50.7143 19.8096
" />
<path d="M50.7143 19.8096
L50.7619 19.7143
" />
<path d="M50.7619 19.7143
L50.7619 19.5239
" />
<path d="M50.7619 19.5239
L50.7143 19.4286
" />
<path d="M50.7143 19.4286
L50.6667 19.3810
" />
<path d="M50.6667 19.3810
L50.5714 19.3334
" />
<path d="M51.6667 18.9048
L51.1905 18.9048
" />
<path d="M51.1905 18.9048
L51.1429 19.3810
" />
<path d="M51.1429 19.3810
L51.1905 19.3334
" />
<path d="M51.1905 19.3334
L51.2857 19.2858
" />
<path d="M51.2857 19.2858
L51.5238 19.2858
" />
<path d="M51.5238 19.2858
L51.6190 19.3334
" />
<path d="M51.6190 19.3334
L51.6667 19.3810
" />
<path d="M51.6667 19.3810
L51.7143 19.4762
" />
<path d="M51.7143 19.4762
L51.7143 19.7143
" />
<path d="M51.7143 19.7143
L51.6667 19.8096
" />
<path d="M51.6667 19.8096
L51.6190 19.8572
" />
<path d="M51.6190 19.8572
L51.5238 19.9048
" />
<path d="M51.5238 19.9048
L51.2857 19.9048
" />
<path d="M51.2857 19.9048
L51.1905 19.8572
" />
<path d="M51.1905 19.8572
L51.1429 19.8096
" />
<path d="M52.5714 18.9048
L52.3810 18.9048
" />
<path d="M52.3810 18.9048
L52.2857 18.9524
" />
<path d="M52.2857 18.9524
L52.2381 19.0001
" />
<path d="M52.2381 19.0001
L52.1429 19.1429
" />
<path d="M52.1429 19.1429
L52.0952 19.3334
" />
<path d="M52.0952 19.3334
L52.0952 19.7143
" />
<path d="M52.0952 19.7143
L52.1429 19.8096
" />
<path d="M52.1429 19.8096
L52.1905 19.8572
" />
<path d="M52.1905 19.8572
L52.2857 19.9048
" />
<path d="M52.2857 19.9048
L52.4762 19.9048
" />
<path d="M52.4762 19.9048
L52.5714 19.8572
" />
<path d="M52.5714 19.8572
L52.6190 19.8096
" />
<path d="M52.6190 19.8096
L52.6667 19.7143
" />
<path d="M52.6667 19.7143
L52.6667 19.4762
" />
<path d="M52.6667 19.4762
L52.6190 19.3810
" />
<path d="M52.6190 19.3810
L52.5714 19.3334
" />
<path d="M52.5714 19.3334
L52.4762 19.2858
" />
<path d="M52.4762 19.2858
L52.2857 19.2858
" />
<path d="M52.2857 19.2858
L52.1905 19.3334
" />
<path d="M52.1905 19.3334
L52.1429 19.3810
" />
<path d="M52.1429 19.3810
L52.0952 19.4762
" />
</g><text x="49.0000" y="16.5000"
textLength="2.2500" font-size="1.3333" lengthAdjust="spacingAndGlyphs"
text-anchor="middle" opacity="0" stroke-opacity="0">U3</text>
<g class="stroked-text"><desc>U3</desc>
<path d="M48.2381 15.4548
L48.2381 16.2643
" />
<path d="M48.2381 16.2643
L48.2857 16.3596
" />
<path d="M48.2857 16.3596
L48.3333 16.4072
" />
<path d="M48.3333 16.4072
L48.4286 16.4548
" />
<path d="M48.4286 16.4548
L48.6190 16.4548
" />
<path d="M48.6190 16.4548
L48.7143 16.4072
" />
<path d="M48.7143 16.4072
L48.7619 16.3596
" />
<path d="M48.7619 16.3596
L48.8095 16.2643
" />
<path d="M48.8095 16.2643
L48.8095 15.4548
" />
<path d="M49.1905 15.4548
L49.8095 15.4548
" />
<path d="M49.8095 15.4548
L49.4762 15.8358
" />
<path d="M49.4762 15.8358
L49.6190 15.8358
" />
<path d="M49.6190 15.8358
L49.7143 15.8834
" />
<path d="M49.7143 15.8834
L49.7619 15.9310
" />
<path d="M49.7619 15.9310
L49.8095 16.0262
" />
<path d="M49.8095 16.0262
L49.8095 16.2643
" />
<path d="M49.8095 16.2643
L49.7619 16.3596
" />
<path d="M49.7619 16.3596
L49.7143 16.4072
" />
<path d="M49.7143 16.4072
L49.6190 16.4548
" />
<path d="M49.6190 16.4548
L49.3333 16.4548
" />
<path d="M49.3333 16.4548
L49.2381 16.4072
" />
<path d="M49.2381 16.4072
L49.1905 16.3596
" />
</g><path style="fill:none; 
stroke:#000000; stroke-width:0.1000; stroke-opacity:1; 
stroke-linecap:round; stroke-linejoin:round;fill:none"
d="M 43.7500,9.5000
44.2500,9.5000
44.2500,10.5000
43.7500,10.5000
Z" /> 
<path style="fill:none; 
stroke:#000000; stroke-width:0.1000; stroke-opacity:1; 
stroke-linecap:round; stroke-linejoin:round;fill:none"
d="M 14.7500,9.5000
15.2500,9.5000
15.2500,10.5000
14.7500,10.5000
Z" /> 
<path style="fill:none; 
stroke:#000000; stroke-width:0.1000; stroke-opacity:1; 
stroke-linecap:round; stroke-linejoin:round;fill:none"
d="M 52.7500,9.5000
53.2500,9.5000
53.2500,10.5000
52.7500,10.5000
Z" /> 
<path style="fill:none; 
stroke:#000000; stroke-width:0.1000; stroke-opacity:1; 
stroke-linecap:round; stroke-linejoin:round;fill:none"
d="M 18.8000,13.5000
22.2000,13.5000
22.2000,18.5000
17.8000,18.5000
17.8000,14.5000
Z" /> 
</g>
<g style="fill:none; 
stroke:#000000; stroke-width:0.1000; stroke-opacity:1; 
stroke-linecap:round; stroke-linejoin:round;">
<path d="M57.7300 21.3650
L58.3650 20.7300
" />
<path d="M57.7300 25.8100
L57.7300 21.3650
" />
<path d="M58.3650 20.7300
L60.2700 20.7300
" />
<path d="M60.2700 20.7300
L60.2700 25.8100
" />
<path d="M60.2700 25.8100
L57.7300 25.8100
" />
<path style="fill:none; 
stroke:#000000; stroke-width:0.1000; stroke-opacity:1; 
stroke-linecap:round; stroke-linejoin:round;fill:none"
d="M 40.7300,15.4750
41.2700,15.4750
41.2700,16.5250
40.7300,16.5250
Z" /> 
<path d="M32.7300 26.7300
L53.0500 26.7300
" />
<path d="M32.7300 28.6350
L32.7300 26.7300
" />
<path d="M33.3650 29.2700
L32.7300 28.6350
" />
<path d="M53.0500 26.7300
L53.0500 29.2700
" />
<path d="M53.0500 29.2700
L33.3650 29.2700
" />
<path style="fill:none; 
stroke:#000000; stroke-width:0.1000; stroke-opacity:1; 
stroke-linecap:round; stroke-linejoin:round;fill:none"
d="M 23.7500,9.5000
24.2500,9.5000
24.2500,10.5000
23.7500,10.5000
Z" /> 
<path style="fill:none; 
stroke:#000000; stroke-width:0.1000; stroke-opacity:1; 
stroke-linecap:round; stroke-linejoin:round;fill:none"
d="M 11.7300,15.4750
12.2700,15.4750
12.2700,16.5250
11.7300,16.5250
Z" /> 
<path d="M6.7300 21.3650
L7.3650 20.7300
" />
<path d="M6.7300 25.8100
L6.7300 21.3650
" />
<path d="M7.3650 20.7300
L9.2700 20.7300
" />
<path d="M9.2700 20.7300
L9.2700 25.8100
" />
<path d="M9.2700 25.8100
L6.7300 25.8100
" />
<path style="fill:none; 
stroke:#000000; stroke-width:0.1000; stroke-opacity:1; 
stroke-linecap:round; stroke-linejoin:round;fill:none"
d="M 47.8000,13.5000
51.2000,13.5000
51.2000,18.5000
46.8000,18.5000
46.8000,14.5000
Z" /> 
</g>
<g style="fill:none; 
stroke:#000000; stroke-width:0.1500; stroke-opacity:1; 
stroke-linecap:round; stroke-linejoin:round;">
<g transform="rotate(-90.000000 42.8400 10.0000)">
<text x="42.8400" y="10.5000"
textLength="2.2024" font-size="1.3333" lengthAdjust="spacingAndGlyphs"
text-anchor="middle" opacity="0" stroke-opacity="0">C4</text>
</g>
<g class="stroked-text"><desc>C4</desc>
<path d="M43.1996 10.1667
L43.2472 10.2143
" />
<path d="M43.2472 10.2143
L43.2948 10.3571
" />
<path d="M43.2948 10.3571
L43.2948 10.4524
" />
<path d="M43.2948 10.4524
L43.2472 10.5952
" />
<path d="M43.2472 10.5952
L43.1520 10.6905
" />
<path d="M43.1520 10.6905
L43.0567 10.7381
" />
<path d="M43.0567 10.7381
L42.8662 10.7857
" />
<path d="M42.8662 10.7857
L42.7234 10.7857
" />
<path d="M42.7234 10.7857
L42.5329 10.7381
" />
<path d="M42.5329 10.7381
L42.4377 10.6905
" />
<path d="M42.4377 10.6905
L42.3424 10.5952
" />
<path d="M42.3424 10.5952
L42.2948 10.4524
" />
<path d="M42.2948 10.4524
L42.2948 10.3571
" />
<path d="M42.2948 10.3571
L42.3424 10.2143
" />
<path d="M42.3424 10.2143
L42.3901 10.1667
" />
<path d="M42.6282 9.3095
L43.2948 9.3095
" />
<path d="M42.2472 9.5476
L42.9615 9.7857
" />
<path d="M42.9615 9.7857
L42.9615 9.1667
" />
</g><g transform="rotate(-90.000000 13.8400 10.0000)">
<text x="13.8400" y="10.5000"
textLength="2.2024" font-size="1.3333" lengthAdjust="spacingAndGlyphs"
text-anchor="middle" opacity="0" stroke-opacity="0">C2</text>
</g>
<g class="stroked-text"><desc>C2</desc>
<path d="M14.1996 10.1667
L14.2472 10.2143
" />
<path d="M14.2472 10.2143
L14.2948 10.3571
" />
<path d="M14.2948 10.3571
L14.2948 10.4524
" />
<path d="M14.2948 10.4524
L14.2472 10.5952
" />
<path d="M14.2472 10.5952
L14.1520 10.6905
" />
<path d="M14.1520 10.6905
L14.0567 10.7381
" />
<path d="M14.0567 10.7381
L13.8662 10.7857
" />
<path d="M13.8662 10.7857
L13.7234 10.7857
" />
<path d="M13.7234 10.7857
L13.5329 10.7381
" />
<path d="M13.5329 10.7381
L13.4377 10.6905
" />
<path d="M13.4377 10.6905
L13.3424 10.5952
" />
<path d="M13.3424 10.5952
L13.2948 10.4524
" />
<path d="M13.2948 10.4524
L13.2948 10.3571
" />
<path d="M13.2948 10.3571
L13.3424 10.2143
" />
<path d="M13.3424 10.2143
L13.3901 10.1667
" />
<path d="M13.3901 9.7857
L13.3424 9.7381
" />
<path d="M13.3424 9.7381
L13.2948 9.6429
" />
<path d="M13.2948 9.6429
L13.2948 9.4048
" />
<path d="M13.2948 9.4048
L13.3424 9.3095
" />
<path d="M13.3424 9.3095
L13.3901 9.2619
" />
<path d="M13.3901 9.2619
L13.4853 9.2143
" />
<path d="M13.4853 9.2143
L13.5805 9.2143
" />
<path d="M13.5805 9.2143
L13.7234 9.2619
" />
<path d="M13.7234 9.2619
L14.2948 9.8333
" />
<path d="M14.2948 9.8333
L14.2948 9.2143
" />
</g><g transform="rotate(-90.000000 51.8400 10.0000)">
<text x="51.8400" y="10.5000"
textLength="2.2024" font-size="1.3333" lengthAdjust="spacingAndGlyphs"
text-anchor="middle" opacity="0" stroke-opacity="0">C5</text>
</g>
<g class="stroked-text"><desc>C5</desc>
<path d="M52.1996 10.1667
L52.2472 10.2143
" />
<path d="M52.2472 10.2143
L52.2948 10.3571
" />
<path d="M52.2948 10.3571
L52.2948 10.4524
" />
<path d="M52.2948 10.4524
L52.2472 10.5952
" />
<path d="M52.2472 10.5952
L52.1520 10.6905
" />
<path d="M52.1520 10.6905
L52.0567 10.7381
" />
<path d="M52.0567 10.7381
L51.8662 10.7857
" />
<path d="M51.8662 10.7857
L51.7234 10.7857
" />
<path d="M51.7234 10.7857
L51.5329 10.7381
" />
<path d="M51.5329 10.7381
L51.4377 10.6905
" />
<path d="M51.4377 10.6905
L51.3424 10.5952
" />
<path d="M51.3424 10.5952
L51.2948 10.4524
" />
<path d="M51.2948 10.4524
L51.2948 10.3571
" />
<path d="M51.2948 10.3571
L51.3424 10.2143
" />
<path d="M51.3424 10.2143
L51.3901 10.1667
" />
<path d="M51.2948 9.2619
L51.2948 9.7381
" />
<path d="M51.2948 9.7381
L51.7710 9.7857
" />
<path d="M51.7710 9.7857
L51.7234 9.7381
" />
<path d="M51.7234 9.7381
L51.6758 9.6429
" />
<path d="M51.6758 9.6429
L51.6758 9.4048
" />
<path d="M51.6758 9.4048
L51.7234 9.3095
" />
<path d="M51.7234 9.3095
L51.7710 9.2619
" />
<path d="M51.7710 9.2619
L51.8662 9.2143
" />
<path d="M51.8662 9.2143
L52.1043 9.2143
" />
<path d="M52.1043 9.2143
L52.1996 9.2619
" />
<path d="M52.1996 9.2619
L52.2472 9.3095
" />
<path d="M52.2472 9.3095
L52.2948 9.4048
" />
<path d="M52.2948 9.4048
L52.2948 9.6429
" />
<path d="M52.2948 9.6429
L52.2472 9.7381
" />
<path d="M52.2472 9.7381
L52.1996 9.7857
" />
</g><text x="20.0000" y="13.0500"
textLength="2.2500" font-size="1.3333" lengthAdjust="spacingAndGlyphs"
text-anchor="middle" opacity="0" stroke-opacity="0">U2</text>
<g class="stroked-text"><desc>U2</desc>
<path d="M19.2381 12.0048
L19.2381 12.8143
" />
<path d="M19.2381 12.8143
L19.2857 12.9096
" />
<path d="M19.2857 12.9096
L19.3333 12.9572
" />
<path d="M19.3333 12.9572
L19.4286 13.0048
" />
<path d="M19.4286 13.0048
L19.6190 13.0048
" />
<path d="M19.6190 13.0048
L19.7143 12.9572
" />
<path d="M19.7143 12.9572
L19.7619 12.9096
" />
<path d="M19.7619 12.9096
L19.8095 12.8143
" />
<path d="M19.8095 12.8143
L19.8095 12.0048
" />
<path d="M20.2381 12.1001
L20.2857 12.0524
" />
<path d="M20.2857 12.0524
L20.3810 12.0048
" />
<path d="M20.3810 12.0048
L20.6190 12.0048
" />
<path d="M20.6190 12.0048
L20.7143 12.0524
" />
<path d="M20.7143 12.0524
L20.7619 12.1001
" />
<path d="M20.7619 12.1001
L20.8095 12.1953
" />
<path d="M20.8095 12.1953
L20.8095 12.2905
" />
<path d="M20.8095 12.2905
L20.7619 12.4334
" />
<path d="M20.7619 12.4334
L20.1905 13.0048
" />
<path d="M20.1905 13.0048
L20.8095 13.0048
" />
</g><text x="59.0000" y="20.1200"
textLength="1.9643" font-size="1.3333" lengthAdjust="spacingAndGlyphs"
text-anchor="middle" opacity="0" stroke-opacity="0">J4</text>
<g class="stroked-text"><desc>J4</desc>
<path d="M58.6667 19.0748
L58.6667 19.7891
" />
<path d="M58.6667 19.7891
L58.6190 19.9320
" />
<path d="M58.6190 19.9320
L58.5238 20.0272
" />
<path d="M58.5238 20.0272
L58.3810 20.0748
" />
<path d="M58.3810 20.0748
L58.2857 20.0748
" />
<path d="M59.5714 19.4082
L59.5714 20.0748
" />
<path d="M59.3333 19.0272
L59.0952 19.7415
" />
<path d="M59.0952 19.7415
L59.7143 19.7415
" />
</g><g transform="rotate(-90.000000 39.8300 16.0000)">
<text x="39.8300" y="16.5000"
textLength="2.2024" font-size="1.3333" lengthAdjust="spacingAndGlyphs"
text-anchor="middle" opacity="0" stroke-opacity="0">R4</text>
</g>
<g class="stroked-text"><desc>R4</desc>
<path d="M40.2848 16.1667
L39.8086 16.5000
" />
<path d="M40.2848 16.7381
L39.2848 16.7381
" />
<path d="M39.2848 16.7381
L39.2848 16.3571
" />
<path d="M39.2848 16.3571
L39.3324 16.2619
" />
<path d="M39.3324 16.2619
L39.3801 16.2143
" />
<path d="M39.3801 16.2143
L39.4753 16.1667
" />
<path d="M39.4753 16.1667
L39.6182 16.1667
" />
<path d="M39.6182 16.1667
L39.7134 16.2143
" />
<path d="M39.7134 16.2143
L39.7610 16.2619
" />
<path d="M39.7610 16.2619
L39.8086 16.3571
" />
<path d="M39.8086 16.3571
L39.8086 16.7381
" />
<path d="M39.6182 15.3095
L40.2848 15.3095
" />
<path d="M39.2372 15.5476
L39.9515 15.7857
" />
<path d="M39.9515 15.7857
L39.9515 15.1667
" />
</g><g transform="rotate(-90.000000 31.6200 28.0000)">
<text x="31.6200" y="28.5000"
textLength="1.9643" font-size="1.3333" lengthAdjust="spacingAndGlyphs"
text-anchor="middle" opacity="0" stroke-opacity="0">J2</text>
</g>
<g class="stroked-text"><desc>J2</desc>
<path d="M31.0748 28.3333
L31.7891 28.3333
" />
<path d="M31.7891 28.3333
L31.9320 28.3810
" />
<path d="M31.9320 28.3810
L32.0272 28.4762
" />
<path d="M32.0272 28.4762
L32.0748 28.6190
" />
<path d="M32.0748 28.6190
L32.0748 28.7143
" />
<path d="M31.1701 27.9048
L31.1224 27.8571
" />
<path d="M31.1224 27.8571
L31.0748 27.7619
" />
<path d="M31.0748 27.7619
L31.0748 27.5238
" />
<path d="M31.0748 27.5238
L31.1224 27.4286
" />
<path d="M31.1224 27.4286
L31.1701 27.3810
" />
<path d="M31.1701 27.3810
L31.2653 27.3333
" />
<path d="M31.2653 27.3333
L31.3605 27.3333
" />
<path d="M31.3605 27.3333
L31.5034 27.3810
" />
<path d="M31.5034 27.3810
L32.0748 27.9524
" />
<path d="M32.0748 27.9524
L32.0748 27.3333
" />
</g><g transform="rotate(-90.000000 22.8400 10.0000)">
<text x="22.8400" y="10.5000"
textLength="2.2024" font-size="1.3333" lengthAdjust="spacingAndGlyphs"
text-anchor="middle" opacity="0" stroke-opacity="0">C3</text>
</g>
<g class="stroked-text"><desc>C3</desc>
<path d="M23.1996 10.1667
L23.2472 10.2143
" />
<path d="M23.2472 10.2143
L23.2948 10.3571
" />
<path d="M23.2948 10.3571
L23.2948 10.4524
" />
<path d="M23.2948 10.4524
L23.2472 10.5952
" />
<path d="M23.2472 10.5952
L23.1520 10.6905
" />
<path d="M23.1520 10.6905
L23.0567 10.7381
" />
<path d="M23.0567 10.7381
L22.8662 10.7857
" />
<path d="M22.8662 10.7857
L22.7234 10.7857
" />
<path d="M22.7234 10.7857
L22.5329 10.7381
" />
<path d="M22.5329 10.7381
L22.4377 10.6905
" />
<path d="M22.4377 10.6905
L22.3424 10.5952
" />
<path d="M22.3424 10.5952
L22.2948 10.4524
" />
<path d="M22.2948 10.4524
L22.2948 10.3571
" />
<path d="M22.2948 10.3571
L22.3424 10.2143
" />
<path d="M22.3424 10.2143
L22.3901 10.1667
" />
<path d="M22.2948 9.8333
L22.2948 9.2143
" />
<path d="M22.2948 9.2143
L22.6758 9.5476
" />
<path d="M22.6758 9.5476
L22.6758 9.4048
" />
<path d="M22.6758 9.4048
L22.7234 9.3095
" />
<path d="M22.7234 9.3095
L22.7710 9.2619
" />
<path d="M22.7710 9.2619
L22.8662 9.2143
" />
<path d="M22.8662 9.2143
L23.1043 9.2143
" />
<path d="M23.1043 9.2143
L23.1996 9.2619
" />
<path d="M23.1996 9.2619
L23.2472 9.3095
" />
<path d="M23.2472 9.3095
L23.2948 9.4048
" />
<path d="M23.2948 9.4048
L23.2948 9.6905
" />
<path d="M23.2948 9.6905
L23.2472 9.7857
" />
<path d="M23.2472 9.7857
L23.1996 9.8333
" />
</g><g transform="rotate(-90.000000 10.8300 16.0000)">
<text x="10.8300" y="16.5000"
textLength="2.2024" font-size="1.3333" lengthAdjust="spacingAndGlyphs"
text-anchor="middle" opacity="0" stroke-opacity="0">R3</text>
</g>
<g class="stroked-text"><desc>R3</desc>
<path d="M11.2848 16.1667
L10.8086 16.5000
" />
<path d="M11.2848 16.7381
L10.2848 16.7381
" />
<path d="M10.2848 16.7381
L10.2848 16.3571
" />
<path d="M10.2848 16.3571
L10.3324 16.2619
" />
<path d="M10.3324 16.2619
L10.3801 16.2143
" />
<path d="M10.3801 16.2143
L10.4753 16.1667
" />
<path d="M10.4753 16.1667
L10.6182 16.1667
" />
<path d="M10.6182 16.1667
L10.7134 16.2143
" />
<path d="M10.7134 16.2143
L10.7610 16.2619
" />
<path d="M10.7610 16.2619
L10.8086 16.3571
" />
<path d="M10.8086 16.3571
L10.8086 16.7381
" />
<path d="M10.2848 15.8333
L10.2848 15.2143
" />
<path d="M10.2848 15.2143
L10.6658 15.5476
" />
<path d="M10.6658 15.5476
L10.6658 15.4048
" />
<path d="M10.6658 15.4048
L10.7134 15.3095
" />
<path d="M10.7134 15.3095
L10.7610 15.2619
" />
<path d="M10.7610 15.2619
L10.8562 15.2143
" />
<path d="M10.8562 15.2143
L11.0943 15.2143
" />
<path d="M11.0943 15.2143
L11.1896 15.2619
" />
<path d="M11.1896 15.2619
L11.2372 15.3095
" />
<path d="M11.2372 15.3095
L11.2848 15.4048
" />
<path d="M11.2848 15.4048
L11.2848 15.6905
" />
<path d="M11.2848 15.6905
L11.2372 15.7857
" />
<path d="M11.2372 15.7857
L11.1896 15.8333
" />
</g><text x="8.0000" y="20.1200"
textLength="1.9643" font-size="1.3333" lengthAdjust="spacingAndGlyphs"
text-anchor="middle" opacity="0" stroke-opacity="0">J3</text>
<g class="stroked-text"><desc>J3</desc>
<path d="M7.6667 19.0748
L7.6667 19.7891
" />
<path d="M7.6667 19.7891
L7.6190 19.9320
" />
<path d="M7.6190 19.9320
L7.5238 20.0272
" />
<path d="M7.5238 20.0272
L7.3810 20.0748
" />
<path d="M7.3810 20.0748
L7.2857 20.0748
" />
<path d="M8.0476 19.0748
L8.6667 19.0748
" />
<path d="M8.6667 19.0748
L8.3333 19.4558
" />
<path d="M8.3333 19.4558
L8.4762 19.4558
" />
<path d="M8.4762 19.4558
L8.5714 19.5034
" />
<path d="M8.5714 19.5034
L8.6190 19.5510
" />
<path d="M8.6190 19.5510
L8.6667 19.6462
" />
<path d="M8.6667 19.6462
L8.6667 19.8843
" />
<path d="M8.6667 19.8843
L8.6190 19.9796
" />
<path d="M8.6190 19.9796
L8.5714 20.0272
" />
<path d="M8.5714 20.0272
L8.4762 20.0748
" />
<path d="M8.4762 20.0748
L8.1905 20.0748
" />
<path d="M8.1905 20.0748
L8.0952 20.0272
" />
<path d="M8.0952 20.0272
L8.0476 19.9796
" />
</g><text x="49.0000" y="13.0500"
textLength="2.2500" font-size="1.3333" lengthAdjust="spacingAndGlyphs"
text-anchor="middle" opacity="0" stroke-opacity="0">U3</text>
<g class="stroked-text"><desc>U3</desc>
<path d="M48.2381 12.0048
L48.2381 12.8143
" />
<path d="M48.2381 12.8143
L48.2857 12.9096
" />
<path d="M48.2857 12.9096
L48.3333 12.9572
" />
<path d="M48.3333 12.9572
L48.4286 13.0048
" />
<path d="M48.4286 13.0048
L48.6190 13.0048
" />
<path d="M48.6190 13.0048
L48.7143 12.9572
" />
<path d="M48.7143 12.9572
L48.7619 12.9096
" />
<path d="M48.7619 12.9096
L48.8095 12.8143
" />
<path d="M48.8095 12.8143
L48.8095 12.0048
" />
<path d="M49.1905 12.0048
L49.8095 12.0048
" />
<path d="M49.8095 12.0048
L49.4762 12.3858
" />
<path d="M49.4762 12.3858
L49.6190 12.3858
" />
<path d="M49.6190 12.3858
L49.7143 12.4334
" />
<path d="M49.7143 12.4334
L49.7619 12.4810
" />
<path d="M49.7619 12.4810
L49.8095 12.5762
" />
<path d="M49.8095 12.5762
L49.8095 12.8143
" />
<path d="M49.8095 12.8143
L49.7619 12.9096
" />
<path d="M49.7619 12.9096
L49.7143 12.9572
" />
<path d="M49.7143 12.9572
L49.6190 13.0048
" />
<path d="M49.6190 13.0048
L49.3333 13.0048
" />
<path d="M49.3333 13.0048
L49.2381 12.9572
" />
<path d="M49.2381 12.9572
L49.1905 12.9096
" />
</g></g>
<g style="fill:none; 
stroke:#000000; stroke-width:0.1200; stroke-opacity:1; 
stroke-linecap:round; stroke-linejoin:round;">
<path d="M43.6400 10.1078
L43.6400 9.8922
" />
<path d="M44.3600 10.1078
L44.3600 9.8922
" />
<path d="M14.6400 10.1078
L14.6400 9.8922
" />
<path d="M15.3600 10.1078
L15.3600 9.8922
" />
<path d="M52.6400 10.1078
L52.6400 9.8922
" />
<path d="M53.3600 10.1078
L53.3600 9.8922
" />
<path d="M17.6900 13.3900
L22.3100 13.3900
" />
<path d="M17.6900 13.5900
L17.6900 13.3900
" />
<path d="M17.6900 18.6100
L17.6900 18.4100
" />
<path d="M22.3100 13.3900
L22.3100 13.5900
" />
<path d="M22.3100 18.4100
L22.3100 18.6100
" />
<path d="M22.3100 18.6100
L17.6900 18.6100
" />
<path style="fill:none; 
stroke:#000000; stroke-width:0.1200; stroke-opacity:1; 
stroke-linecap:round; stroke-linejoin:round;fill:none"
d="M 17.0500,13.5900
16.7100,13.1200
17.3900,13.1200
Z" /> 
<path style="fill:#000000; fill-opacity:1.0000; stroke:none;fill-rule:evenodd;"
d="M 17.0500,13.5900
16.7100,13.1200
17.3900,13.1200
Z" /> 
</g>
<g style="fill:none; 
stroke:#000000; stroke-width:0.1200; stroke-opacity:1; 
stroke-linecap:round; stroke-linejoin:round;">
<path d="M57.6200 20.6200
L59.0000 20.6200
" />
<path d="M57.6200 22.0000
L57.6200 20.6200
" />
<path d="M57.6200 23.2700
L57.6200 25.9200
" />
<path d="M57.6200 23.2700
L60.3800 23.2700
" />
<path d="M57.6200 25.9200
L60.3800 25.9200
" />
<path d="M60.3800 23.2700
L60.3800 25.9200
" />
<path d="M40.6200 16.1536
L40.6200 15.8464
" />
<path d="M41.3800 16.1536
L41.3800 15.8464
" />
<path d="M32.6200 29.3800
L32.6200 28.0000
" />
<path d="M34.0000 29.3800
L32.6200 29.3800
" />
<path d="M35.2700 26.6200
L53.1600 26.6200
" />
<path d="M35.2700 29.3800
L35.2700 26.6200
" />
<path d="M35.2700 29.3800
L53.1600 29.3800
" />
<path d="M53.1600 29.3800
L53.1600 26.6200
" />
<path d="M23.6400 10.1078
L23.6400 9.8922
" />
<path d="M24.3600 10.1078
L24.3600 9.8922
" />
<path d="M11.6200 16.1536
L11.6200 15.8464
" />
<path d="M12.3800 16.1536
L12.3800 15.8464
" />
<path d="M6.6200 20.6200
L8.0000 20.6200
" />
<path d="M6.6200 22.0000
L6.6200 20.6200
" />
<path d="M6.6200 23.2700
L6.6200 25.9200
" />
<path d="M6.6200 23.2700
L9.3800 23.2700
" />
<path d="M6.6200 25.9200
L9.3800 25.9200
" />
<path d="M9.3800 23.2700
L9.3800 25.9200
" />
<path d="M46.6900 13.3900
L51.3100 13.3900
" />
<path d="M46.6900 13.5900
L46.6900 13.3900
" />
<path d="M46.6900 18.6100
L46.6900 18.4100
" />
<path d="M51.3100 13.3900
L51.3100 13.5900
" />
<path d="M51.3100 18.4100
L51.3100 18.6100
" />
<path d="M51.3100 18.6100
L46.6900 18.6100
" />
<path style="fill:none; 
stroke:#000000; stroke-width:0.1200; stroke-opacity:1; 
stroke-linecap:round; stroke-linejoin:round;fill:none"
d="M 46.0500,13.5900
45.7100,13.1200
46.3900,13.1200
Z" /> 
<path style="fill:#000000; fill-opacity:1.0000; stroke:none;fill-rule:evenodd;"
d="M 46.0500,13.5900
45.7100,13.1200
46.3900,13.1200
Z" /> 
<path style="fill:none; 
stroke:#000000; stroke-width:0.0500; stroke-opacity:1; 
stroke-linecap:round; stroke-linejoin:round;fill:none"
d="M 43.5400,9.0900
44.4600,9.0900
44.4600,10.9100
43.5400,10.9100
Z" /> 
</g>
<g style="fill:none; 
stroke:#000000; stroke-width:0.0500; stroke-opacity:1; 
stroke-linecap:round; stroke-linejoin:round;">
<circle cx="61.5000" cy="3.5000" r="2.9500" /> 
<path style="fill:none; 
stroke:#000000; stroke-width:0.0500; stroke-opacity:1; 
stroke-linecap:round; stroke-linejoin:round;fill:none"
d="M 14.5400,9.0900
15.4600,9.0900
15.4600,10.9100
14.5400,10.9100
Z" /> 
<path style="fill:none; 
stroke:#000000; stroke-width:0.0500; stroke-opacity:1; 
stroke-linecap:round; stroke-linejoin:round;fill:none"
d="M 52.5400,9.0900
53.4600,9.0900
53.4600,10.9100
52.5400,10.9100
Z" /> 
<path d="M16.1500 13.6000
L17.5500 13.6000
" />
<path d="M16.1500 18.4000
L16.1500 13.6000
" />
<path d="M17.5500 13.2500
L22.4500 13.2500
" />
<path d="M17.5500 13.6000
L17.5500 13.2500
" />
<path d="M17.5500 18.4000
L16.1500 18.4000
" />
<path d="M17.5500 18.7500
L17.5500 18.4000
" />
<path d="M22.4500 13.2500
L22.4500 13.6000
" />
<path d="M22.4500 13.6000
L23.8500 13.6000
" />
<path d="M22.4500 18.4000
L22.4500 18.7500
" />
<path d="M22.4500 18.7500
L17.5500 18.7500
" />
<path d="M23.8500 13.6000
L23.8500 18.4000
" />
<path d="M23.8500 18.4000
L22.4500 18.4000
" />
<path style="fill:none; 
stroke:#000000; stroke-width:0.0500; stroke-opacity:1; 
stroke-linecap:round; stroke-linejoin:round;fill:none"
d="M 57.2300,20.2300
60.7700,20.2300
60.7700,26.3200
57.2300,26.3200
Z" /> 
<path style="fill:none; 
stroke:#000000; stroke-width:0.0500; stroke-opacity:1; 
stroke-linecap:round; stroke-linejoin:round;fill:none"
d="M 40.5300,15.0700
41.4700,15.0700
41.4700,16.9300
40.5300,16.9300
Z" /> 
<circle cx="3.5000" cy="26.5000" r="2.9500" /> 
<path style="fill:none; 
stroke:#000000; stroke-width:0.0500; stroke-opacity:1; 
stroke-linecap:round; stroke-linejoin:round;fill:none"
d="M 32.2300,26.2300
53.5500,26.2300
53.5500,29.7700
32.2300,29.7700
Z" /> 
<path style="fill:none; 
stroke:#000000; stroke-width:0.0500; stroke-opacity:1; 
stroke-linecap:round; stroke-linejoin:round;fill:none"
d="M 23.5400,9.0900
24.4600,9.0900
24.4600,10.9100
23.5400,10.9100
Z" /> 
<circle cx="3.5000" cy="3.5000" r="2.9500" /> 
<path style="fill:none; 
stroke:#000000; stroke-width:0.0500; stroke-opacity:1; 
stroke-linecap:round; stroke-linejoin:round;fill:none"
d="M 11.5300,15.0700
12.4700,15.0700
12.4700,16.9300
11.5300,16.9300
Z" /> 
<path style="fill:none; 
stroke:#000000; stroke-width:0.0500; stroke-opacity:1; 
stroke-linecap:round; stroke-linejoin:round;fill:none"
d="M 6.2300,20.2300
9.7700,20.2300
9.7700,26.3200
6.2300,26.3200
Z" /> 
<circle cx="61.5000" cy="26.5000" r="2.9500" /> 
<path d="M45.1500 13.6000
L46.5500 13.6000
" />
<path d="M45.1500 18.4000
L45.1500 13.6000
" />
<path d="M46.5500 13.2500
L51.4500 13.2500
" />
<path d="M46.5500 13.6000
L46.5500 13.2500
" />
<path d="M46.5500 18.4000
L45.1500 18.4000
" />
<path d="M46.5500 18.7500
L46.5500 18.4000
" />
<path d="M51.4500 13.2500
L51.4500 13.6000
" />
<path d="M51.4500 13.6000
L52.8500 13.6000
" />
<path d="M51.4500 18.4000
L51.4500 18.7500
" />
<path d="M51.4500 18.7500
L46.5500 18.7500
" />
<path d="M52.8500 13.6000
L52.8500 18.4000
" />
<path d="M52.8500 18.4000
L51.4500 18.4000
" />
</g>
<g style="fill:#000000; fill-opacity:1.0000; stroke:none;">
<circle cx="61.5000" cy="3.5000" r="1.3500" /> 
</g>
<g style="fill:#FFFFFF; fill-opacity:1.0000; stroke:none;">
<circle cx="59.0000" cy="22.0000" r="0.5000" /> 
</g>
<g style="fill:#FFFFFF; fill-opacity:1.0000; stroke:none;">
<circle cx="59.0000" cy="24.5400" r="0.5000" /> 
</g>
<g style="fill:#000000; fill-opacity:1.0000; stroke:none;">
<circle cx="3.5000" cy="26.5000" r="1.3500" /> 
</g>
<g style="fill:#FFFFFF; fill-opacity:1.0000; stroke:none;">
<circle cx="34.0000" cy="28.0000" r="0.5000" /> 
</g>
<g style="fill:#FFFFFF; fill-opacity:1.0000; stroke:none;">
<circle cx="36.5400" cy="28.0000" r="0.5000" /> 
</g>
<g style="fill:#FFFFFF; fill-opacity:1.0000; stroke:none;">
<circle cx="39.0800" cy="28.0000" r="0.5000" /> 
</g>
<g style="fill:#FFFFFF; fill-opacity:1.0000; stroke:none;">
<circle cx="41.6200" cy="28.0000" r="0.5000" /> 
</g>
<g style="fill:#FFFFFF; fill-opacity:1.0000; stroke:none;">
<circle cx="44.1600" cy="28.0000" r="0.5000" /> 
</g>
<g style="fill:#FFFFFF; fill-opacity:1.0000; stroke:none;">
<circle cx="46.7000" cy="28.0000" r="0.5000" /> 
</g>
<g style="fill:#FFFFFF; fill-opacity:1.0000; stroke:none;">
<circle cx="49.2400" cy="28.0000" r="0.5000" /> 
</g>
<g style="fill:#FFFFFF; fill-opacity:1.0000; stroke:none;">
<circle cx="51.7800" cy="28.0000" r="0.5000" /> 
</g>
<g style="fill:#000000; fill-opacity:1.0000; stroke:none;">
<circle cx="3.5000" cy="3.5000" r="1.3500" /> 
</g>
<g style="fill:#FFFFFF; fill-opacity:1.0000; stroke:none;">
<circle cx="8.0000" cy="22.0000" r="0.5000" /> 
</g>
<g style="fill:#FFFFFF; fill-opacity:1.0000; stroke:none;">
<circle cx="8.0000" cy="24.5400" r="0.5000" /> 
</g>
<g style="fill:#000000; fill-opacity:1.0000; stroke:none;">
<circle cx="61.5000" cy="26.5000" r="1.3500" /> 
</g>
<g style="fill:#FFFFFF; fill-opacity:1.0000; stroke:none;">
<circle cx="8.3700" cy="4.7700" r="0.5000" /> 
</g>
<g style="fill:#FFFFFF; fill-opacity:1.0000; stroke:none;">
<circle cx="8.3700" cy="2.2300" r="0.5000" /> 
</g>
<g style="fill:#FFFFFF; fill-opacity:1.0000; stroke:none;">
<circle cx="10.9100" cy="4.7700" r="0.5000" /> 
</g>
<g style="fill:#FFFFFF; fill-opacity:1.0000; stroke:none;">
<circle cx="10.9100" cy="2.2300" r="0.5000" /> 
</g>
<g style="fill:#FFFFFF; fill-opacity:1.0000; stroke:none;">
<circle cx="13.4500" cy="4.7700" r="0.5000" /> 
</g>
<g style="fill:#FFFFFF; fill-opacity:1.0000; stroke:none;">
<circle cx="13.4500" cy="2.2300" r="0.5000" /> 
</g>
<g style="fill:#FFFFFF; fill-opacity:1.0000; stroke:none;">
<circle cx="15.9900" cy="4.7700" r="0.5000" /> 
</g>
<g style="fill:#FFFFFF; fill-opacity:1.0000; stroke:none;">
<circle cx="15.9900" cy="2.2300" r="0.5000" /> 
</g>
<g style="fill:#FFFFFF; fill-opacity:1.0000; stroke:none;">
<circle cx="18.5300" cy="4.7700" r="0.5000" /> 
</g>
<g style="fill:#FFFFFF; fill-opacity:1.0000; stroke:none;">
<circle cx="18.5300" cy="2.2300" r="0.5000" /> 
</g>
<g style="fill:#FFFFFF; fill-opacity:1.0000; stroke:none;">
<circle cx="21.0700" cy="4.7700" r="0.5000" /> 
</g>
<g style="fill:#FFFFFF; fill-opacity:1.0000; stroke:none;">
<circle cx="21.0700" cy="2.2300" r="0.5000" /> 
</g>
<g style="fill:#FFFFFF; fill-opacity:1.0000; stroke:none;">
<circle cx="23.6100" cy="4.7700" r="0.5000" /> 
</g>
<g style="fill:#FFFFFF; fill-opacity:1.0000; stroke:none;">
<circle cx="23.6100" cy="2.2300" r="0.5000" /> 
</g>
<g style="fill:#FFFFFF; fill-opacity:1.0000; stroke:none;">
<circle cx="26.1500" cy="4.7700" r="0.5000" /> 
</g>
<g style="fill:#FFFFFF; fill-opacity:1.0000; stroke:none;">
<circle cx="26.1500" cy="2.2300" r="0.5000" /> 
</g>
<g style="fill:#FFFFFF; fill-opacity:1.0000; stroke:none;">
<circle cx="28.6900" cy="4.7700" r="0.5000" /> 
</g>
<g style="fill:#FFFFFF; fill-opacity:1.0000; stroke:none;">
<circle cx="28.6900" cy="2.2300" r="0.5000" /> 
</g>
<g style="fill:#FFFFFF; fill-opacity:1.0000; stroke:none;">
<circle cx="31.2300" cy="4.7700" r="0.5000" /> 
</g>
<g style="fill:#FFFFFF; fill-opacity:1.0000; stroke:none;">
<circle cx="31.2300" cy="2.2300" r="0.5000" /> 
</g>
<g style="fill:#FFFFFF; fill-opacity:1.0000; stroke:none;">
<circle cx="33.7700" cy="4.7700" r="0.5000" /> 
</g>
<g style="fill:#FFFFFF; fill-opacity:1.0000; stroke:none;">
<circle cx="33.7700" cy="2.2300" r="0.5000" /> 
</g>
<g style="fill:#FFFFFF; fill-opacity:1.0000; stroke:none;">
<circle cx="36.3100" cy="4.7700" r="0.5000" /> 
</g>
<g style="fill:#FFFFFF; fill-opacity:1.0000; stroke:none;">
<circle cx="36.3100" cy="2.2300" r="0.5000" /> 
</g>
<g style="fill:#FFFFFF; fill-opacity:1.0000; stroke:none;">
<circle cx="38.8500" cy="4.7700" r="0.5000" /> 
</g>
<g style="fill:#FFFFFF; fill-opacity:1.0000; stroke:none;">
<circle cx="38.8500" cy="2.2300" r="0.5000" /> 
</g>
<g style="fill:#FFFFFF; fill-opacity:1.0000; stroke:none;">
<circle cx="41.3900" cy="4.7700" r="0.5000" /> 
</g>
<g style="fill:#FFFFFF; fill-opacity:1.0000; stroke:none;">
<circle cx="41.3900" cy="2.2300" r="0.5000" /> 
</g>
<g style="fill:#FFFFFF; fill-opacity:1.0000; stroke:none;">
<circle cx="43.9300" cy="4.7700" r="0.5000" /> 
</g>
<g style="fill:#FFFFFF; fill-opacity:1.0000; stroke:none;">
<circle cx="43.9300" cy="2.2300" r="0.5000" /> 
</g>
<g style="fill:#FFFFFF; fill-opacity:1.0000; stroke:none;">
<circle cx="46.4700" cy="4.7700" r="0.5000" /> 
</g>
<g style="fill:#FFFFFF; fill-opacity:1.0000; stroke:none;">
<circle cx="46.4700" cy="2.2300" r="0.5000" /> 
</g>
<g style="fill:#FFFFFF; fill-opacity:1.0000; stroke:none;">
<circle cx="49.0100" cy="4.7700" r="0.5000" /> 
</g>
<g style="fill:#FFFFFF; fill-opacity:1.0000; stroke:none;">
<circle cx="49.0100" cy="2.2300" r="0.5000" /> 
</g>
<g style="fill:#FFFFFF; fill-opacity:1.0000; stroke:none;">
<circle cx="51.5500" cy="4.7700" r="0.5000" /> 
</g>
<g style="fill:#FFFFFF; fill-opacity:1.0000; stroke:none;">
<circle cx="51.5500" cy="2.2300" r="0.5000" /> 
</g>
<g style="fill:#FFFFFF; fill-opacity:1.0000; stroke:none;">
<circle cx="54.0900" cy="4.7700" r="0.5000" /> 
</g>
<g style="fill:#FFFFFF; fill-opacity:1.0000; stroke:none;">
<circle cx="54.0900" cy="2.2300" r="0.5000" /> 
</g>
<g style="fill:#FFFFFF; fill-opacity:1.0000; stroke:none;">
<circle cx="56.6300" cy="4.7700" r="0.5000" /> 
</g>
<g style="fill:#FFFFFF; fill-opacity:1.0000; stroke:none;">
<circle cx="56.6300" cy="2.2300" r="0.5000" /> 
</g> 
</svg>
